<svg version="1.1" xmlns="http://www.w3.org/2000/svg" xmlns:xlink="http://www.w3.org/1999/xlink" width="436.96826" height="72.51249" viewBox="0,0,436.96826,72.51249"><defs><linearGradient x1="40.18959" y1="172.24153" x2="40.18959" y2="208.59702" gradientUnits="userSpaceOnUse" id="color-1"><stop offset="0" stop-color="#005dc1" stop-opacity="0"/><stop offset="1" stop-color="#005dc1"/></linearGradient><linearGradient x1="314.40018" y1="144.02841" x2="314.40018" y2="212.09137" gradientUnits="userSpaceOnUse" id="color-2"><stop offset="0" stop-color="#ffffff"/><stop offset="1" stop-color="#ffffff" stop-opacity="0"/></linearGradient><linearGradient x1="315.63605" y1="194.04012" x2="315.63605" y2="210.18951" gradientTransform="translate(-863.99266,-589.1195) scale(2.85769,2.85769)" gradientUnits="userSpaceOnUse" id="color-3"><stop offset="0" stop-color="#ffffff"/><stop offset="1" stop-color="#ffffff" stop-opacity="0"/></linearGradient><linearGradient x1="373.36102" y1="143.79256" x2="373.36102" y2="211.85553" gradientUnits="userSpaceOnUse" id="color-4"><stop offset="0" stop-color="#ffffff"/><stop offset="1" stop-color="#ffffff" stop-opacity="0"/></linearGradient><linearGradient x1="369.6438" y1="193.80406" x2="369.6438" y2="209.95346" gradientTransform="translate(-1018.33113,-588.44551) scale(2.85769,2.85769)" gradientUnits="userSpaceOnUse" id="color-5"><stop offset="0" stop-color="#ffffff"/><stop offset="1" stop-color="#ffffff" stop-opacity="0"/></linearGradient><linearGradient x1="429.96342" y1="143.79256" x2="429.96342" y2="211.85553" gradientUnits="userSpaceOnUse" id="color-6"><stop offset="0" stop-color="#ffffff"/><stop offset="1" stop-color="#ffffff" stop-opacity="0"/></linearGradient><linearGradient x1="421.83407" y1="196.1427" x2="421.83407" y2="209.51023" gradientTransform="translate(-1418.34116,-711.77525) scale(3.4524,3.4524)" gradientUnits="userSpaceOnUse" id="color-7"><stop offset="0" stop-color="#ffffff"/><stop offset="1" stop-color="#ffffff" stop-opacity="0"/></linearGradient><linearGradient x1="63.06634" y1="171.62324" x2="63.06634" y2="207.97873" gradientUnits="userSpaceOnUse" id="color-8"><stop offset="0" stop-color="#e1565d" stop-opacity="0"/><stop offset="1" stop-color="#e1565d"/></linearGradient><linearGradient x1="44.51762" y1="189.80099" x2="81.61506" y2="189.80099" gradientUnits="userSpaceOnUse" id="color-9"><stop offset="0" stop-color="#ffffff"/><stop offset="1" stop-color="#ffffff" stop-opacity="0"/></linearGradient><linearGradient x1="51.31882" y1="152.45623" x2="51.31882" y2="188.81172" gradientUnits="userSpaceOnUse" id="color-10"><stop offset="0" stop-color="#e3b700"/><stop offset="1" stop-color="#e3b700" stop-opacity="0"/></linearGradient><linearGradient x1="51.31882" y1="152.45623" x2="51.31882" y2="188.81172" gradientUnits="userSpaceOnUse" id="color-11"><stop offset="0" stop-color="#ffffff"/><stop offset="1" stop-color="#ffffff" stop-opacity="0"/></linearGradient><linearGradient x1="99.00764" y1="196.50387" x2="216.2349" y2="196.50387" gradientTransform="translate(-268.3022,-544.0461) scale(2.70991,2.70991)" gradientUnits="userSpaceOnUse" id="color-12"><stop offset="0" stop-color="#e1565d"/><stop offset="1" stop-color="#be56e1"/></linearGradient></defs><g transform="translate(-21.39087,-143.69494)"><g data-paper-data="{&quot;isPaintingLayer&quot;:true}" stroke-linecap="butt" stroke-linejoin="miter" stroke-miterlimit="10" stroke-dasharray="" stroke-dashoffset="0" style="mix-blend-mode: normal"><path d="M21.64087,190.41928c0,10.03929 8.30455,18.17774 18.54872,18.17774c10.24417,0 18.54872,-8.13845 18.54872,-18.17774c0,-10.03929 -8.30455,-18.17774 -18.54872,-18.17774c-10.24417,0 -18.54872,8.13845 -18.54872,18.17774z" fill="url(#color-1)" fill-rule="nonzero" stroke="#ffffff" stroke-width="0.5"/><text transform="translate(93.81472,177.08786) scale(0.76006,0.76006)" font-size="40" xml:space="preserve" fill="#e1565d" fill-rule="nonzero" stroke-opacity="0" stroke="#000000" stroke-width="0" stroke-linecap="butt" stroke-linejoin="miter" stroke-miterlimit="10" stroke-dasharray="" stroke-dashoffset="0" font-family="&quot;Microsoft YaHei&quot;, &quot;微软雅黑&quot;, STXihei, &quot;华文细黑&quot;" font-weight="normal" text-anchor="start" style="mix-blend-mode: normal"><tspan x="0" dy="0">Cloud</tspan></text><path d="M338.25923,145.54479c0.17085,0 0.34502,0 0.51587,0.00084c0.14514,0.00084 0.2936,0.00333 0.43874,0.00582c0.3193,0.0083 0.63862,0.02742 0.95295,0.08392c0.31847,0.05652 0.61539,0.15206 0.90816,0.29914c0.28447,0.14625 0.54489,0.33654 0.76965,0.56255c0.22725,0.22603 0.41634,0.48776 0.56231,0.77361c0.1468,0.29 0.24052,0.58829 0.29526,0.90739c0.05888,0.31576 0.07713,0.63566 0.08791,0.95476c0.00249,0.14625 0.00249,0.29333 0.00249,0.43956c0.00333,0.17283 0.00333,0.3465 0.00333,0.52101v61.56629c0,0.17533 0,0.34817 -0.00333,0.52183c0,0.14791 0,0.29166 -0.00249,0.43957c-0.01078,0.31908 -0.02903,0.639 -0.08791,0.95475c-0.05473,0.31908 -0.14846,0.61906 -0.29526,0.90823c-0.14597,0.28419 -0.33507,0.54593 -0.56231,0.77029c-0.22476,0.22767 -0.48518,0.41713 -0.76965,0.56172c-0.29276,0.14958 -0.58969,0.24347 -0.90816,0.30081c-0.31433,0.05732 -0.63363,0.07561 -0.95295,0.08475c-0.14514,0.00333 -0.2936,0.00498 -0.43874,0.00498c-0.17085,0.00084 -0.34502,0.00084 -0.51587,0.00084h-43.20095c-0.17499,0 -0.3475,0 -0.52168,-0.00084c-0.14597,0 -0.2911,-0.00166 -0.43707,-0.00498c-0.31766,-0.00914 -0.63779,-0.02742 -0.9546,-0.08475c-0.31847,-0.05732 -0.61456,-0.15123 -0.90484,-0.30081c-0.28447,-0.14457 -0.54572,-0.33405 -0.77048,-0.56172c-0.22808,-0.22436 -0.41634,-0.4861 -0.56149,-0.77029c-0.14762,-0.28917 -0.24218,-0.58913 -0.29692,-0.90823c-0.05806,-0.31576 -0.07713,-0.63566 -0.08543,-0.95475c-0.00497,-0.14791 -0.00497,-0.29166 -0.00746,-0.43957c0,-0.17367 0,-0.34649 0,-0.52183v-61.56629c0,-0.17449 0,-0.34817 0,-0.52101c0.00249,-0.14625 0.00249,-0.29333 0.00746,-0.43956c0.00829,-0.31908 0.02737,-0.639 0.08543,-0.95476c0.05473,-0.31908 0.14929,-0.6174 0.29692,-0.90739c0.14514,-0.28584 0.3334,-0.54759 0.56149,-0.77361c0.22476,-0.22603 0.48601,-0.4163 0.77048,-0.56255c0.29028,-0.14708 0.58636,-0.24263 0.90484,-0.29914c0.31683,-0.05652 0.63696,-0.07561 0.9546,-0.08392c0.14597,-0.00249 0.2911,-0.00498 0.43707,-0.00582c0.17417,-0.00084 0.34668,-0.00084 0.52168,-0.00084h43.20095" fill="#005dc1" fill-rule="evenodd" stroke="none" stroke-width="1"/><path d="M294.19345,212.09131c-0.16294,0 -0.32356,0 -0.48573,-0.00081c-0.13501,0 -0.26613,-0.00164 -0.39959,-0.00489c-0.24286,-0.00732 -0.53149,-0.02115 -0.81006,-0.07323c-0.25915,-0.04963 -0.48106,-0.12611 -0.69522,-0.24166c-0.21881,-0.11635 -0.41433,-0.26606 -0.58348,-0.44507c-0.17458,-0.17902 -0.31657,-0.38405 -0.4283,-0.6135c-0.10863,-0.22212 -0.18312,-0.45973 -0.22735,-0.72905c-0.05277,-0.30513 -0.06595,-0.61595 -0.07138,-0.8527c-0.00311,-0.1009 -0.00466,-0.19528 -0.00543,-0.29047l-0.00155,-0.13506v-61.29731l0.00155,-0.12693c0.00077,-0.09439 0.00233,-0.18958 0.00543,-0.28397c0.00543,-0.24247 0.01862,-0.55248 0.07062,-0.85271c0.045,-0.27258 0.11949,-0.51016 0.22812,-0.73311c0.11174,-0.23108 0.25451,-0.43612 0.42442,-0.61269c0.17302,-0.18226 0.36933,-0.33279 0.58659,-0.44914c0.2157,-0.11474 0.44305,-0.19284 0.69445,-0.23921c0.29096,-0.05452 0.58737,-0.06835 0.81316,-0.07404l0.09466,-0.00164c0.10165,-0.00243 0.20252,-0.00407 0.30416,-0.00489c0.1614,-0.00081 0.32201,-0.00081 0.48494,-0.00081h40.41648c0.15906,0 0.32123,0 0.4803,0.00081c0.10243,0.00081 0.20872,0.00325 0.31269,0.00489l0.09155,0.00164c0.2219,0.0057 0.51831,0.01954 0.80462,0.07323c0.25451,0.04719 0.48339,0.12611 0.70297,0.24166c0.2126,0.11474 0.40968,0.26526 0.58116,0.44506c0.17071,0.17819 0.31424,0.38568 0.4283,0.61596c0.1063,0.22295 0.18078,0.46135 0.22346,0.72577c0.05121,0.28723 0.06595,0.58258 0.07526,0.85922c0.00155,0.12856 0.00155,0.27015 0.00155,0.41091c0.00388,0.17738 0.00311,0.34336 0.00311,0.51017v60.28592c0,0.16761 0.00077,0.33279 -0.00311,0.49797c0,0.15541 0,0.29292 -0.00233,0.43612c-0.00854,0.26444 -0.02327,0.5598 -0.07293,0.8389c-0.045,0.27421 -0.11872,0.5126 -0.22657,0.73718c-0.11251,0.22702 -0.25527,0.43287 -0.42365,0.607c-0.17458,0.1847 -0.37012,0.33361 -0.58659,0.44914c-0.21726,0.11554 -0.43994,0.19284 -0.70143,0.24247c-0.27545,0.05208 -0.5641,0.06593 -0.81006,0.07404c-0.1288,0.00243 -0.26381,0.00407 -0.39572,0.00407c-0.1614,0.00081 -0.32356,0.00081 -0.48262,0.00081h-40.41648" fill="url(#color-2)" fill-rule="evenodd" stroke="none" stroke-width="0"/><path d="M298.10768,167.57484v-15.54455h15.25123v15.54455z" fill="#005dc1" fill-rule="nonzero" stroke="none" stroke-width="0"/><path d="M315.41199,167.77037v-15.54455h15.25123v15.54455z" fill="#005dc1" fill-rule="nonzero" stroke="none" stroke-width="0"/><path d="M298.10768,184.97689v-15.54455h15.25123v15.54455z" fill="#005dc1" fill-rule="nonzero" stroke="none" stroke-width="0"/><path d="M315.41199,185.17242v-15.54455h15.25123v15.54455z" fill="#005dc1" fill-rule="nonzero" stroke="none" stroke-width="0"/><text transform="translate(302.33959,206.15238) scale(0.34993,0.34993)" font-size="40" xml:space="preserve" fill="url(#color-3)" fill-rule="nonzero" stroke="none" stroke-width="1" stroke-linecap="butt" stroke-linejoin="miter" stroke-miterlimit="10" stroke-dasharray="" stroke-dashoffset="0" font-family="&quot;Microsoft YaHei&quot;, &quot;微软雅黑&quot;, STXihei, &quot;华文细黑&quot;" font-weight="normal" text-anchor="start" style="mix-blend-mode: normal"><tspan x="0" dy="0">Win</tspan></text><path d="M397.22008,145.30894c0.17085,0 0.34502,0 0.51587,0.00083c0.14514,0.00084 0.2936,0.00333 0.43874,0.00582c0.31931,0.0083 0.63862,0.02744 0.95295,0.08392c0.31848,0.05651 0.61539,0.15206 0.90816,0.29914c0.28447,0.14624 0.54489,0.33654 0.76965,0.56255c0.22725,0.22604 0.41634,0.48776 0.56231,0.7736c0.1468,0.29 0.24052,0.58829 0.29526,0.90739c0.05888,0.31576 0.07713,0.63566 0.08791,0.95475c0.00249,0.14624 0.00249,0.29333 0.00249,0.43957c0.00331,0.17283 0.00333,0.3465 0.00333,0.52101v61.56629c0,0.17533 0,0.34817 -0.00333,0.52183c0,0.14791 0,0.29166 -0.00249,0.43957c-0.01078,0.3191 -0.02903,0.639 -0.08791,0.95476c-0.05473,0.3191 -0.14846,0.61906 -0.29526,0.90823c-0.14597,0.28419 -0.33506,0.54593 -0.56231,0.77029c-0.22476,0.22767 -0.48518,0.41713 -0.76965,0.56172c-0.29276,0.14959 -0.58968,0.24347 -0.90816,0.30081c-0.31433,0.05732 -0.63363,0.07561 -0.95295,0.08475c-0.14514,0.00333 -0.2936,0.00498 -0.43874,0.00498c-0.17085,0.00084 -0.34502,0.00084 -0.51587,0.00084h-43.20096c-0.17499,0 -0.34751,0 -0.52168,-0.00084c-0.14597,0 -0.2911,-0.00166 -0.43707,-0.00498c-0.31766,-0.00914 -0.63779,-0.02744 -0.9546,-0.08475c-0.31848,-0.05732 -0.61456,-0.15122 -0.90484,-0.30081c-0.28447,-0.14457 -0.54573,-0.33405 -0.77048,-0.56172c-0.22807,-0.22436 -0.41635,-0.4861 -0.56149,-0.77029c-0.14762,-0.28916 -0.24218,-0.58913 -0.2969,-0.90823c-0.05806,-0.31576 -0.07714,-0.63566 -0.08543,-0.95476c-0.00497,-0.14791 -0.00497,-0.29166 -0.00746,-0.43957c0,-0.17367 0,-0.3465 0,-0.52183v-61.56629c0,-0.17449 0,-0.34817 0,-0.52101c0.00249,-0.14624 0.00249,-0.29333 0.00746,-0.43957c0.00829,-0.3191 0.02738,-0.639 0.08543,-0.95475c0.05473,-0.3191 0.14928,-0.6174 0.2969,-0.90739c0.14514,-0.28584 0.3334,-0.54759 0.56149,-0.7736c0.22476,-0.22604 0.48601,-0.4163 0.77048,-0.56255c0.29028,-0.14708 0.58636,-0.24263 0.90484,-0.29914c0.31682,-0.05651 0.63696,-0.07561 0.9546,-0.08392c0.14597,-0.00249 0.2911,-0.00498 0.43707,-0.00582c0.17417,-0.00084 0.34668,-0.00083 0.52168,-0.00083h43.20096" fill="#e3b700" fill-rule="evenodd" stroke="none" stroke-width="1"/><path d="M353.15429,211.85547c-0.16294,0 -0.32354,0 -0.48571,-0.00081c-0.13502,0 -0.26613,-0.00165 -0.39959,-0.00489c-0.24286,-0.00732 -0.53149,-0.02114 -0.81006,-0.07322c-0.25915,-0.04963 -0.48106,-0.12611 -0.69522,-0.24166c-0.21881,-0.11635 -0.41433,-0.26606 -0.58348,-0.44507c-0.17458,-0.17902 -0.31658,-0.38405 -0.42831,-0.6135c-0.10863,-0.22212 -0.18311,-0.45973 -0.22733,-0.72905c-0.05277,-0.30513 -0.06595,-0.61596 -0.07138,-0.85271c-0.00311,-0.1009 -0.00466,-0.19528 -0.00543,-0.29047l-0.00155,-0.13506v-61.29731l0.00155,-0.12693c0.00077,-0.09438 0.00233,-0.18958 0.00543,-0.28398c0.00543,-0.24247 0.01862,-0.55249 0.07061,-0.85271c0.04501,-0.27258 0.11949,-0.51016 0.22812,-0.7331c0.11174,-0.23108 0.25451,-0.43613 0.42443,-0.6127c0.17303,-0.18226 0.36933,-0.33278 0.58659,-0.44913c0.2157,-0.11473 0.44305,-0.19284 0.69445,-0.23921c0.29096,-0.05451 0.58737,-0.06835 0.81315,-0.07405l0.09466,-0.00164c0.10165,-0.00243 0.20252,-0.00407 0.30416,-0.00489c0.16139,-0.00082 0.32201,-0.00081 0.48494,-0.00081h40.41648c0.15906,0 0.32123,0 0.4803,0.00081c0.10243,0.00082 0.20872,0.00325 0.31269,0.00489l0.09156,0.00164c0.2219,0.0057 0.51831,0.01954 0.80461,0.07323c0.2545,0.04721 0.48339,0.12611 0.70298,0.24166c0.2126,0.11473 0.40968,0.26525 0.58116,0.44506c0.17071,0.1782 0.31424,0.38568 0.4283,0.61596c0.1063,0.22294 0.18078,0.46135 0.22345,0.72579c0.05121,0.28723 0.06595,0.58258 0.07526,0.85922c0.00155,0.12856 0.00155,0.27015 0.00155,0.41091c0.00388,0.17738 0.00311,0.34336 0.00311,0.51017v60.28592c0,0.16761 0.00077,0.33279 -0.00311,0.49797c0,0.15541 0,0.29292 -0.00232,0.43612c-0.00854,0.26444 -0.02328,0.5598 -0.07293,0.8389c-0.04501,0.27421 -0.11872,0.5126 -0.22657,0.73718c-0.11251,0.22702 -0.25527,0.43287 -0.42365,0.607c-0.17458,0.1847 -0.37012,0.33361 -0.58659,0.44914c-0.21726,0.11555 -0.43994,0.19284 -0.70141,0.24247c-0.27546,0.05208 -0.56408,0.06592 -0.81006,0.07405c-0.1288,0.00243 -0.26381,0.00407 -0.39572,0.00407c-0.16139,0.00082 -0.32356,0.00082 -0.48262,0.00082h-40.41648" fill="url(#color-4)" fill-rule="evenodd" stroke="none" stroke-width="0"/><text transform="translate(356.34772,205.91653) scale(0.34993,0.34993)" font-size="40" xml:space="preserve" fill="url(#color-5)" fill-rule="nonzero" stroke="none" stroke-width="1" stroke-linecap="butt" stroke-linejoin="miter" stroke-miterlimit="10" stroke-dasharray="" stroke-dashoffset="0" font-family="&quot;Microsoft YaHei&quot;, &quot;微软雅黑&quot;, STXihei, &quot;华文细黑&quot;" font-weight="normal" text-anchor="start" style="mix-blend-mode: normal"><tspan x="0" dy="0">Linux</tspan></text><path d="M374.55955,159.50882c0,0.11253 -0.11254,0.11253 -0.11254,0.11253h-0.11253c-0.11254,0 -0.11253,-0.11253 -0.22508,-0.22508c0,0 -0.11254,-0.11253 -0.11254,-0.22508c0,-0.11253 0,-0.11253 0.11254,-0.11253l0.22508,0.11253c0.11254,0.11253 0.22508,0.22508 0.22508,0.33761M372.53387,158.38344c0,-0.56269 -0.22508,-0.90031 -0.56269,-0.90031c0,0 0,0.11254 -0.11254,0.11254v0.22508h0.33761c0,0.22508 0.11254,0.33761 0.11254,0.56269h0.22508M376.47268,157.82076c0.22508,0 0.3376,0.22508 0.45014,0.56269h0.22508c-0.11254,-0.11253 -0.11254,-0.22508 -0.11254,-0.33761c0,-0.11253 0,-0.22507 -0.11254,-0.33761c-0.11254,-0.11253 -0.22507,-0.22508 -0.3376,-0.22508c0,0 -0.11253,0.11254 -0.22508,0.11254c0,0.11253 0.11253,0.11253 0.11253,0.22508M373.09656,159.62136c-0.11254,0 -0.11253,0 -0.11253,-0.11253c0,-0.11253 0,-0.22508 0.11253,-0.33761c0.22508,0 0.33761,-0.11253 0.33761,-0.11253c0.11254,0 0.11253,0.11253 0.11253,0.11253c0,0.11253 -0.11253,0.22508 -0.33761,0.45014h-0.11253M371.85865,159.50882c-0.45014,-0.22508 -0.56269,-0.56269 -0.56269,-1.12538c0,-0.33761 0,-0.56269 0.22508,-0.78777c0.11254,-0.22508 0.33761,-0.33761 0.56269,-0.33761c0.22508,0 0.3376,0.11253 0.56269,0.33761c0.11254,0.33761 0.22508,0.67523 0.22508,1.01283v0.22508h0.11254v-0.11253c0.11254,0 0.11253,-0.22508 0.11253,-0.67523c0,-0.33761 0,-0.67523 -0.22508,-1.01283c-0.22508,-0.33761 -0.45014,-0.56269 -0.9003,-0.56269c-0.33761,0 -0.67523,0.22508 -0.78777,0.56269c-0.22508,0.45014 -0.27009,0.78777 -0.27009,1.35044c0,0.45014 0.15756,0.9003 0.6077,1.35044c0.11254,-0.11253 0.22507,-0.11253 0.3376,-0.22508M385.92586,175.37663c0.11254,0 0.11254,-0.04501 0.11254,-0.14629c0,-0.24758 -0.11254,-0.54018 -0.45016,-0.86654c-0.33761,-0.33761 -0.9003,-0.55144 -1.57552,-0.64146c-0.11254,-0.01125 -0.22508,-0.01125 -0.22508,-0.01125c-0.11254,-0.02251 -0.11253,-0.0225 -0.22508,-0.0225c-0.11254,-0.01125 -0.3376,-0.03376 -0.45014,-0.05628c0.33761,-1.04659 0.45014,-1.9694 0.45014,-2.77967c0,-1.12538 -0.22508,-1.91314 -0.67523,-2.58837c-0.45014,-0.67523 -0.9003,-1.01283 -1.46299,-1.12538c-0.11254,0.11253 -0.11254,0.11253 -0.11254,0.22508c0.56269,0.22508 1.12538,0.67523 1.46299,1.35044c0.33761,0.78777 0.45014,1.46299 0.45014,2.25076c0,0.63021 -0.11254,1.56427 -0.56269,2.75717c-0.45014,0.18006 -0.9003,0.59645 -1.23791,1.24916c0,0.10128 -0.00001,0.15756 0.11253,0.15756c0,0 0.11253,-0.10128 0.22508,-0.2926c0.22508,-0.19132 0.33761,-0.38264 0.56269,-0.57395c0.33761,-0.19132 0.56269,-0.2926 0.9003,-0.2926c0.56269,0 1.12538,0.07877 1.46299,0.23632c0.45014,0.14629 0.67522,0.30385 0.78777,0.48392c0.11254,0.16881 0.22507,0.32636 0.3376,0.47266c0,0.14629 0.11254,0.21381 0.11254,0.21381M375.57238,159.05868c-0.11254,-0.11253 -0.11253,-0.33761 -0.11253,-0.56269c0,-0.45014 0,-0.67523 0.22508,-1.01284c0.22508,-0.22508 0.45014,-0.3376 0.67523,-0.3376c0.33761,0 0.56269,0.22508 0.78777,0.45014c0.11254,0.33761 0.22508,0.56269 0.22508,0.9003c0,0.56269 -0.22508,0.9003 -0.67523,1.01284c0,0 0.11253,0.11253 0.22508,0.11253c0.22508,0 0.33761,0.11253 0.56269,0.22508c0.11254,-0.67523 0.22508,-1.12538 0.22508,-1.68807c0,-0.67523 -0.11253,-1.12538 -0.3376,-1.46299c-0.33761,-0.33761 -0.67523,-0.45016 -1.12538,-0.45016c-0.33761,0 -0.67522,0.11254 -1.01283,0.33761c-0.22508,0.33761 -0.33761,0.56269 -0.33761,0.9003c0,0.56269 0.11254,1.01284 0.33761,1.46299c0.11254,0 0.22507,0.11253 0.33761,0.11253M376.92284,160.85927c-1.46299,1.01283 -2.58837,1.46299 -3.48867,1.46299c-0.78777,0 -1.57553,-0.33761 -2.25076,-0.9003c0.11254,0.22508 0.22508,0.45014 0.33761,0.56269l0.67523,0.67523c0.45014,0.45014 1.01283,0.67523 1.57553,0.67523c0.78777,0 1.68807,-0.45014 2.81344,-1.23791l1.01284,-0.67523c0.22508,-0.22508 0.45014,-0.45014 0.45014,-0.78777c0,-0.11253 0,-0.22508 -0.11254,-0.22508c-0.11254,-0.22508 -0.67522,-0.56269 -1.8006,-0.9003c-1.01284,-0.45014 -1.80061,-0.67523 -2.25076,-0.67523c-0.33761,0 -0.9003,0.22508 -1.68807,0.67523c-0.67523,0.45014 -1.12538,0.9003 -1.12538,1.35044c0,0 0.11253,0.11253 0.22508,0.33761c0.67523,0.56269 1.35044,0.9003 2.02568,0.9003c0.9003,0 2.02568,-0.45014 3.48867,-1.57553v0.22508c0.11254,0 0.11253,0.11253 0.11253,0.11253M379.5112,183.59188c0.45014,0.84628 1.23792,1.27168 2.13822,1.27168c0.22508,0 0.45014,-0.03376 0.67523,-0.10128c0.22508,-0.04501 0.45014,-0.1238 0.56269,-0.21382c0.11254,-0.07878 0.22508,-0.15755 0.33761,-0.24757c0.22508,-0.07878 0.22507,-0.13505 0.3376,-0.19132l1.91314,-1.6543c0.45014,-0.35901 0.9003,-0.67298 1.46299,-0.94531c0.45014,-0.27009 0.9003,-0.45014 1.12538,-0.55144c0.33761,-0.09004 0.56269,-0.22507 0.78777,-0.40513c0.11254,-0.16881 0.22508,-0.38264 0.22508,-0.65272c0,-0.32636 -0.22508,-0.57394 -0.45014,-0.754c-0.22508,-0.18006 -0.45014,-0.30385 -0.67523,-0.38264c-0.22508,-0.07878 -0.45014,-0.25884 -0.78777,-0.56269c-0.22508,-0.2926 -0.45014,-0.69774 -0.56269,-1.22666l-0.11253,-0.65272c-0.11254,-0.30385 -0.11253,-0.52893 -0.22508,-0.65272c0,-0.03376 0,-0.04501 -0.11254,-0.04501c-0.11254,0 -0.3376,0.10128 -0.45014,0.2926c-0.22508,0.19132 -0.45014,0.40513 -0.67523,0.63021c-0.11254,0.22508 -0.45014,0.42764 -0.67523,0.61896c-0.33761,0.19132 -0.67523,0.2926 -0.9003,0.2926c-0.9003,0 -1.35044,-0.24757 -1.68808,-0.73149c-0.22508,-0.36012 -0.3376,-0.77651 -0.45014,-1.24916c-0.22508,-0.19132 -0.33761,-0.2926 -0.56269,-0.2926c-0.56269,0 -0.78777,0.5852 -0.78777,1.76684v3.49992c0,0.10128 -0.11253,0.32636 -0.11253,0.67523c-0.11254,0.34886 -0.11254,0.745 -0.11254,1.1929l-0.22508,1.24916v0.01913M363.19324,182.99318c1.04659,0.15305 2.25074,0.48054 3.61246,0.98021c1.3617,0.49517 2.19449,0.75401 2.49834,0.75401c0.78777,0 1.44048,-0.34886 1.98066,-1.02297c0.11254,-0.21833 0.11253,-0.47491 0.11253,-0.76975c0,-1.06348 -0.64146,-2.4083 -1.9244,-4.0401l-0.76526,-1.0241c-0.15756,-0.21381 -0.34886,-0.54018 -0.59645,-0.97908c-0.23633,-0.43889 -0.45014,-0.77651 -0.61896,-1.01283c-0.14629,-0.25884 -0.38264,-0.51766 -0.68649,-0.77651c-0.2926,-0.25884 -0.63021,-0.42764 -1.00158,-0.51768c-0.47266,0.09004 -0.79902,0.24758 -0.95657,0.46141c-0.15756,0.21381 -0.24757,0.45014 -0.27009,0.69774c-0.03376,0.23633 -0.10128,0.39388 -0.21382,0.47266c-0.11254,0.06752 -0.30385,0.1238 -0.56269,0.18006c-0.05627,0 -0.15756,-0.00001 -0.30385,0.01124h-0.30385c-0.59645,0 -1.00159,0.06752 -1.2154,0.18006c-0.28134,0.32636 -0.42764,0.69773 -0.42764,1.09162c0,0.18006 0.04501,0.48392 0.13504,0.91155c0.09004,0.41638 0.13504,0.754 0.13504,0.99034c0,0.46141 -0.13505,0.92281 -0.4164,1.38422c-0.28134,0.48392 -0.42764,0.84403 -0.42764,1.10062c0.11254,0.43664 0.85529,0.74387 2.21698,0.92393M366.94074,172.76014c0,-0.77651 0.20257,-1.6318 0.61896,-2.64463c0.40514,-1.01283 0.81026,-1.68807 1.20415,-2.13821c-0.02251,-0.11253 -0.07878,-0.11254 -0.16881,-0.11254l-0.11253,-0.11253c-0.32636,0.33761 -0.72024,1.12538 -1.1929,2.25074c-0.47266,1.01283 -0.72024,1.94689 -0.72024,2.63338c0,0.50642 0.12379,0.94531 0.34886,1.32795c0.24758,0.37137 0.84403,0.91155 1.78935,1.59804l1.1929,0.77651c1.27168,1.10287 1.9469,1.86812 1.9469,2.31828c0,0.23633 -0.11253,0.47266 -0.45014,0.7315c-0.22508,0.27009 -0.52893,0.40513 -0.78777,0.40513c-0.02251,0 -0.03375,0.02251 -0.03375,0.07878c0,0.01125 0.11253,0.23633 0.34886,0.67523c0.47266,0.64146 1.4855,0.95657 2.83595,0.95657c2.47582,0 4.38897,-1.01284 5.85197,-3.03852c0,-0.56269 0,-0.91155 -0.11254,-1.05785v-0.4164c0,-0.7315 0.11254,-1.28294 0.33761,-1.64304c0.22508,-0.36012 0.45014,-0.52893 0.78777,-0.52893c0.22508,0 0.45014,0.07878 0.67523,0.24758c0.11254,-0.86654 0.11254,-1.62055 0.11254,-2.29578c0,-1.0241 0,-1.86812 -0.22508,-2.65588c-0.11254,-0.67523 -0.33761,-1.23791 -0.56269,-1.68807l-0.67523,-1.01284c-0.22508,-0.33761 -0.33761,-0.67523 -0.56269,-1.01283c-0.11254,-0.45014 -0.22508,-0.78777 -0.22508,-1.35044c-0.33761,-0.56269 -0.56269,-1.12538 -0.9003,-1.68807c-0.22508,-0.56269 -0.45014,-1.12538 -0.67523,-1.57553l-1.01284,0.78777c-1.12538,0.78777 -2.02568,1.12538 -2.81344,1.12538c-0.67523,0 -1.23791,-0.11253 -1.57553,-0.56269l-0.67523,-0.56269c0,0.33761 -0.11253,0.78777 -0.33761,1.23791l-0.70899,1.35044c-0.3151,0.78777 -0.4839,1.23791 -0.51766,1.57553c-0.04501,0.22508 -0.07878,0.45014 -0.10129,0.45014l-0.84403,1.68807c-0.91155,1.68807 -1.37296,3.25233 -1.37296,4.54652c0,0.25884 0.02251,0.52893 0.06752,0.79902c-0.50642,-0.34886 -0.754,-0.83278 -0.754,-1.46299M374.99845,183.40619c-1.46299,0 -2.58837,0.19807 -3.37612,0.59082v-0.03376c-0.56269,0.67523 -1.1929,1.0241 -2.07069,1.0241c-0.55144,0 -1.41798,-0.21381 -2.58837,-0.64146c-1.18164,-0.40513 -2.22825,-0.71573 -3.1398,-0.92056c-0.09004,-0.02588 -0.2926,-0.06414 -0.61896,-0.11591c-0.3151,-0.05064 -0.6077,-0.1024 -0.86654,-0.15418c-0.23633,-0.05064 -0.50642,-0.12718 -0.79902,-0.2307c-0.28134,-0.0889 -0.50642,-0.20482 -0.67523,-0.34548c-0.15531,-0.1418 -0.23183,-0.3016 -0.23183,-0.48054c0,-0.18006 0.03826,-0.37251 0.11479,-0.57732c0.07202,-0.12379 0.1508,-0.24757 0.22958,-0.36012c0.07878,-0.12379 0.14629,-0.23633 0.19131,-0.34886c0.06752,-0.10128 0.11254,-0.20257 0.15756,-0.3151c0.04501,-0.10128 0.09004,-0.20256 0.11254,-0.32636c0.02251,-0.11253 0.04501,-0.22508 0.04501,-0.33761c0,-0.11253 -0.04501,-0.45014 -0.13504,-1.04659c-0.09004,-0.5852 -0.13504,-0.95657 -0.13504,-1.11411c0,-0.49517 0.11253,-0.88906 0.36012,-1.17039c0.24758,-0.28134 0.48392,-0.42765 0.73149,-0.42765h1.29419c0.10129,0 0.25884,-0.05628 0.49517,-0.19132c0.07878,-0.18006 0.14629,-0.32637 0.19132,-0.46141c0.05627,-0.13504 0.07878,-0.23632 0.10129,-0.28134c0.02251,-0.06752 0.04501,-0.13504 0.06752,-0.19132c0.04501,-0.07878 0.10128,-0.16881 0.18006,-0.25884c-0.09004,-0.11253 -0.13504,-0.25884 -0.13504,-0.4389c0,-0.12379 0,-0.23633 0.02251,-0.30385c0,-0.40513 0.19132,-0.97908 0.59645,-1.73308l0.39389,-0.70898c0.32636,-0.6077 0.57394,-1.05785 0.754,-1.508c0.19132,-0.45014 0.39388,-1.12538 0.61896,-2.02568c0.18006,-0.78777 0.60771,-1.57553 1.28294,-2.36329l0.84402,-1.01283c0.5852,-0.67523 0.96783,-1.23791 1.18166,-1.68807c0.21381,-0.45014 0.32636,-1.01283 0.32636,-1.46299c0,-0.22508 -0.05628,-0.9003 -0.18006,-2.02568c-0.11254,-1.12538 -0.16881,-2.25076 -0.16881,-3.26359c0,-0.78777 0.06752,-1.35044 0.21381,-1.91314c0.14629,-0.56269 0.40514,-1.12538 0.78777,-1.57553c0.33761,-0.45014 0.78777,-0.9003 1.46299,-1.12538c0.67523,-0.22508 1.46299,-0.33761 2.36329,-0.33761c0.33761,0 0.67522,0 1.01283,0.11253c0.33761,0 0.78777,0.11253 1.35046,0.33761c0.45014,0.22508 0.9003,0.45014 1.23791,0.78777c0.45014,0.33761 0.78777,0.9003 1.12538,1.46299c0.22508,0.67523 0.45014,1.35046 0.56269,2.25076c0.11254,0.56269 0.11253,1.12538 0.22508,1.91313c0,0.67523 0.11253,1.12538 0.11253,1.46299c0.11254,0.33761 0.11253,0.78777 0.22508,1.35046c0.11254,0.45014 0.22508,0.9003 0.45014,1.23791c0.22508,0.45014 0.45014,0.9003 0.78777,1.35044c0.33761,0.56269 0.78777,1.12538 1.23791,1.8006c1.01284,1.12538 1.80061,2.36329 2.25076,3.60121c0.56269,1.12538 0.9003,2.58837 0.9003,4.15263c0,0.77651 -0.11254,1.53051 -0.33761,2.262c0.22508,0 0.33761,0.09003 0.45014,0.24757c0.11254,0.15756 0.22507,0.49517 0.33761,1.0241l0.11253,0.83278c0.11254,0.24758 0.22508,0.48392 0.56269,0.68649c0.22508,0.20256 0.45014,0.37138 0.78776,0.50642c0.22508,0.11253 0.56269,0.2701 0.78777,0.47266c0.22508,0.22508 0.33761,0.46141 0.33761,0.70898c0,0.38264 -0.11254,0.66398 -0.33761,0.86654c-0.22508,0.22508 -0.45014,0.38262 -0.78777,0.48392c-0.22508,0.11253 -0.67523,0.33761 -1.35044,0.65497c-0.56269,0.33311 -1.12538,0.73713 -1.68807,1.2154l-1.12538,0.95769c-0.45014,0.43889 -0.9003,0.754 -1.23791,0.94531c-0.33761,0.20256 -0.78777,0.30385 -1.23791,0.30385l-0.78777,-0.09004c-0.9003,-0.23633 -1.46299,-0.68648 -1.8006,-1.37296c-1.8006,-0.21833 -3.2636,-0.32636 -4.1639,-0.32636" fill="#d9b526" fill-rule="nonzero" stroke="#e6c01f" stroke-width="0.5"/><path d="M453.82247,145.30894c0.17085,0 0.34502,0 0.51587,0.00083c0.14514,0.00084 0.2936,0.00333 0.43874,0.00582c0.31931,0.0083 0.63862,0.02744 0.95295,0.08392c0.31848,0.05651 0.61539,0.15206 0.90816,0.29914c0.28447,0.14624 0.54489,0.33654 0.76965,0.56255c0.22725,0.22604 0.41634,0.48776 0.56231,0.7736c0.1468,0.29 0.24052,0.58829 0.29526,0.90739c0.05888,0.31576 0.07713,0.63566 0.08791,0.95475c0.00249,0.14624 0.00249,0.29333 0.00249,0.43957c0.00331,0.17283 0.00333,0.3465 0.00333,0.52101v61.56629c0,0.17533 0,0.34817 -0.00333,0.52183c0,0.14791 0,0.29166 -0.00249,0.43957c-0.01078,0.3191 -0.02903,0.639 -0.08791,0.95476c-0.05473,0.3191 -0.14846,0.61906 -0.29526,0.90823c-0.14597,0.28419 -0.33506,0.54593 -0.56231,0.77029c-0.22476,0.22767 -0.48518,0.41713 -0.76965,0.56172c-0.29276,0.14959 -0.58968,0.24347 -0.90816,0.30081c-0.31433,0.05732 -0.63363,0.07561 -0.95295,0.08475c-0.14514,0.00333 -0.2936,0.00498 -0.43874,0.00498c-0.17085,0.00084 -0.34502,0.00084 -0.51587,0.00084h-43.20096c-0.17499,0 -0.34751,0 -0.52168,-0.00084c-0.14597,0 -0.2911,-0.00166 -0.43707,-0.00498c-0.31766,-0.00914 -0.63779,-0.02744 -0.9546,-0.08475c-0.31848,-0.05732 -0.61456,-0.15122 -0.90484,-0.30081c-0.28447,-0.14457 -0.54573,-0.33405 -0.77048,-0.56172c-0.22807,-0.22436 -0.41635,-0.4861 -0.56149,-0.77029c-0.14762,-0.28916 -0.24218,-0.58913 -0.2969,-0.90823c-0.05806,-0.31576 -0.07714,-0.63566 -0.08543,-0.95476c-0.00497,-0.14791 -0.00497,-0.29166 -0.00746,-0.43957c0,-0.17367 0,-0.3465 0,-0.52183v-61.56629c0,-0.17449 0,-0.34817 0,-0.52101c0.00249,-0.14624 0.00249,-0.29333 0.00746,-0.43957c0.00829,-0.3191 0.02738,-0.639 0.08543,-0.95475c0.05473,-0.3191 0.14928,-0.6174 0.2969,-0.90739c0.14514,-0.28584 0.3334,-0.54759 0.56149,-0.7736c0.22476,-0.22604 0.48601,-0.4163 0.77048,-0.56255c0.29028,-0.14708 0.58636,-0.24263 0.90484,-0.29914c0.31682,-0.05651 0.63696,-0.07561 0.9546,-0.08392c0.14597,-0.00249 0.2911,-0.00498 0.43707,-0.00582c0.17417,-0.00084 0.34668,-0.00083 0.52168,-0.00083h43.20096" fill="#e35656" fill-rule="evenodd" stroke="none" stroke-width="1"/><path d="M409.7567,211.85547c-0.16294,0 -0.32354,0 -0.48571,-0.00081c-0.13502,0 -0.26613,-0.00165 -0.39959,-0.00489c-0.24286,-0.00732 -0.53149,-0.02114 -0.81006,-0.07322c-0.25915,-0.04963 -0.48106,-0.12611 -0.69522,-0.24166c-0.21881,-0.11635 -0.41433,-0.26606 -0.58348,-0.44507c-0.17458,-0.17902 -0.31658,-0.38405 -0.42831,-0.6135c-0.10863,-0.22212 -0.18311,-0.45973 -0.22733,-0.72905c-0.05277,-0.30513 -0.06595,-0.61596 -0.07138,-0.85271c-0.00311,-0.1009 -0.00466,-0.19528 -0.00543,-0.29047l-0.00155,-0.13506v-61.29731l0.00155,-0.12693c0.00077,-0.09438 0.00233,-0.18958 0.00543,-0.28398c0.00543,-0.24247 0.01862,-0.55249 0.07061,-0.85271c0.04501,-0.27258 0.11949,-0.51016 0.22812,-0.7331c0.11174,-0.23108 0.25451,-0.43613 0.42443,-0.6127c0.17303,-0.18226 0.36933,-0.33278 0.58659,-0.44913c0.2157,-0.11473 0.44305,-0.19284 0.69445,-0.23921c0.29096,-0.05451 0.58737,-0.06835 0.81315,-0.07405l0.09466,-0.00164c0.10165,-0.00243 0.20252,-0.00407 0.30416,-0.00489c0.16139,-0.00082 0.32201,-0.00081 0.48494,-0.00081h40.41648c0.15906,0 0.32123,0 0.4803,0.00081c0.10243,0.00082 0.20872,0.00325 0.31269,0.00489l0.09156,0.00164c0.2219,0.0057 0.51831,0.01954 0.80461,0.07323c0.2545,0.04721 0.48339,0.12611 0.70298,0.24166c0.2126,0.11473 0.40968,0.26525 0.58116,0.44506c0.17071,0.1782 0.31424,0.38568 0.4283,0.61596c0.1063,0.22294 0.18078,0.46135 0.22345,0.72579c0.05121,0.28723 0.06595,0.58258 0.07526,0.85922c0.00155,0.12856 0.00155,0.27015 0.00155,0.41091c0.00388,0.17738 0.00311,0.34336 0.00311,0.51017v60.28592c0,0.16761 0.00077,0.33279 -0.00311,0.49797c0,0.15541 0,0.29292 -0.00232,0.43612c-0.00854,0.26444 -0.02328,0.5598 -0.07293,0.8389c-0.04501,0.27421 -0.11872,0.5126 -0.22657,0.73718c-0.11251,0.22702 -0.25527,0.43287 -0.42365,0.607c-0.17458,0.1847 -0.37012,0.33361 -0.58659,0.44914c-0.21726,0.11555 -0.43994,0.19284 -0.70141,0.24247c-0.27546,0.05208 -0.56408,0.06592 -0.81006,0.07405c-0.1288,0.00243 -0.26381,0.00407 -0.39572,0.00407c-0.16139,0.00082 -0.32356,0.00082 -0.48262,0.00082h-40.41648" fill="url(#color-6)" fill-rule="evenodd" stroke="none" stroke-width="0"/><text transform="translate(410.82753,206.16822) scale(0.28965,0.28965)" font-size="40" xml:space="preserve" fill="url(#color-7)" fill-rule="nonzero" stroke="none" stroke-width="1" stroke-linecap="butt" stroke-linejoin="miter" stroke-miterlimit="10" stroke-dasharray="" stroke-dashoffset="0" font-family="&quot;Microsoft YaHei&quot;, &quot;微软雅黑&quot;, STXihei, &quot;华文细黑&quot;" font-weight="normal" text-anchor="start" style="mix-blend-mode: normal"><tspan x="0" dy="0">macOS</tspan></text><path d="M429.83173,172.10936c0,2.69804 -1.40563,4.39612 -3.65086,4.39612c-2.24523,0 -3.65086,-1.70751 -3.65086,-4.39612c0,-2.70749 1.40563,-4.40555 3.65086,-4.40555c2.24523,0 3.65086,1.69808 3.65086,4.40555zM432.96373,162.59073l-0.98111,0.06604c-0.55659,0.03774 -0.80187,0.23584 -0.80187,0.59432c0,0.37735 0.31131,0.58489 0.74526,0.58489c0.59432,0 1.03771,-0.38678 1.03771,-0.90564zM447.00113,168.67548c0,8.95261 -7.08473,16.03735 -16.03735,16.03735c-8.95261,0 -16.03735,-7.08473 -16.03735,-16.03735c0,-8.95261 7.08473,-16.03735 16.03735,-16.03735c8.95261,0 16.03735,7.08473 16.03735,16.03735zM434.68068,162.39262c0,1.30185 0.71696,2.09429 1.88674,2.09429c0.99054,0 1.61316,-0.55659 1.71694,-1.34903h-0.77357c-0.10377,0.43395 -0.44338,0.66979 -0.94337,0.66979c-0.66036,0 -1.06601,-0.53772 -1.06601,-1.41506c0,-0.8679 0.40565,-1.38676 1.06601,-1.38676c0.52829,0 0.85847,0.30188 0.94337,0.68867h0.77357c-0.10377,-0.77357 -0.70753,-1.35846 -1.71694,-1.35846c-1.16978,-0.00943 -1.88674,0.783 -1.88674,2.05656zM423.89792,160.41153v3.99991h0.79243v-2.45277c0,-0.51885 0.36791,-0.93394 0.84904,-0.93394c0.47169,0 0.77357,0.28301 0.77357,0.73583v2.65088h0.77357v-2.52824c0,-0.48112 0.33019,-0.85847 0.84904,-0.85847c0.51885,0 0.77357,0.26415 0.77357,0.82073v2.56598h0.79243v-2.76408c0,-0.83017 -0.47169,-1.32072 -1.28299,-1.32072c-0.55659,0 -1.01884,0.28301 -1.21695,0.71696h-0.06604c-0.17924,-0.43395 -0.55659,-0.71696 -1.10374,-0.71696c-0.53772,0 -0.94337,0.26415 -1.11318,0.71696h-0.0566v-0.64149zM431.23736,172.10936c0,-3.48104 -1.94335,-5.66968 -5.05648,-5.66968c-3.11313,0 -5.05648,2.18862 -5.05648,5.66968c0,3.48104 1.94335,5.66024 5.05648,5.66024c3.11313,0 5.05648,-2.18862 5.05648,-5.66024zM431.72792,164.47747c0.52829,0 0.96224,-0.22641 1.20752,-0.63206h0.06604v0.56603h0.76414v-2.73578c0,-0.83961 -0.56603,-1.33959 -1.57543,-1.33959c-0.91508,0 -1.55657,0.44338 -1.64147,1.11318h0.76414c0.0849,-0.29245 0.39622,-0.45282 0.83961,-0.45282c0.53772,0 0.82073,0.24527 0.82073,0.68867v0.34905l-1.08488,0.06604c-0.9528,0.0566 -1.49053,0.47169 -1.49053,1.19809c-0.00943,0.71696 0.55659,1.17921 1.33015,1.17921zM440.37865,174.4678c0,-1.55657 -0.90564,-2.4622 -3.1886,-2.96219l-1.21695,-0.26415c-1.49997,-0.33019 -2.08486,-0.92451 -2.08486,-1.78298c0,-1.11318 1.05658,-1.78298 2.42447,-1.78298c1.43393,0 2.3773,0.73583 2.49994,1.94335h1.36789c-0.06604,-1.85845 -1.64147,-3.16973 -3.83009,-3.16973c-2.27353,0 -3.86783,1.27356 -3.86783,3.0754c0,1.55657 0.9528,2.55655 3.15087,3.03766l1.21695,0.26415c1.51883,0.33019 2.13203,0.94337 2.13203,1.85845c0,1.07545 -1.08488,1.85845 -2.56598,1.85845c-1.57543,0 -2.66975,-0.71696 -2.83012,-1.89618h-1.36789c0.13207,1.89618 1.72637,3.12256 4.12254,3.12256c2.44334,0 4.03764,-1.27356 4.03764,-3.30181z" fill="#e35656" fill-rule="nonzero" stroke="none" stroke-width="1"/><path d="M44.51762,189.80099c0,10.03929 8.30454,18.17774 18.54872,18.17774c10.24417,0 18.54872,-8.13845 18.54872,-18.17774c0,-10.03929 -8.30454,-18.17774 -18.54872,-18.17774c-10.24417,0 -18.54872,8.13845 -18.54872,18.17774z" fill="url(#color-8)" fill-rule="nonzero" stroke="url(#color-9)" stroke-width="0.5"/><path d="M51.31882,152.45623c10.24417,0 18.54872,8.13845 18.54872,18.17774c0,10.03929 -8.30455,18.17774 -18.54872,18.17774c-10.24417,0 -18.54872,-8.13845 -18.54872,-18.17774c0,-10.03929 8.30455,-18.17774 18.54872,-18.17774z" data-paper-data="{&quot;index&quot;:null}" fill="url(#color-10)" fill-rule="nonzero" stroke="url(#color-11)" stroke-width="0.5"/><text transform="translate(177.23337,176.54264) scale(0.76006,0.76006)" font-size="40" xml:space="preserve" fill="#e3b700" fill-rule="nonzero" stroke-opacity="0" stroke="#000000" stroke-width="0" stroke-linecap="butt" stroke-linejoin="miter" stroke-miterlimit="10" stroke-dasharray="" stroke-dashoffset="0" font-family="&quot;Microsoft YaHei&quot;, &quot;微软雅黑&quot;, STXihei, &quot;华文细黑&quot;" font-weight="normal" text-anchor="start" style="mix-blend-mode: normal"><tspan x="0" dy="0">Dev</tspan></text><text transform="translate(232.30058,175.99742) scale(0.76006,0.76006)" font-size="40" xml:space="preserve" fill="#005dc1" fill-rule="nonzero" stroke-opacity="0" stroke="#000000" stroke-width="0" stroke-linecap="butt" stroke-linejoin="miter" stroke-miterlimit="10" stroke-dasharray="" stroke-dashoffset="0" font-family="&quot;Microsoft YaHei&quot;, &quot;微软雅黑&quot;, STXihei, &quot;华文细黑&quot;" font-weight="normal" text-anchor="start" style="mix-blend-mode: normal"><tspan x="0" dy="0">Kit</tspan></text><text transform="translate(99.00764,200.76138) scale(0.36902,0.36902)" font-size="40" xml:space="preserve" fill="url(#color-12)" fill-rule="nonzero" stroke="none" stroke-width="1" stroke-linecap="butt" stroke-linejoin="miter" stroke-miterlimit="10" stroke-dasharray="" stroke-dashoffset="0" font-family="&quot;Microsoft YaHei&quot;, &quot;微软雅黑&quot;, STXihei, &quot;华文细黑&quot;" font-weight="normal" text-anchor="start" style="mix-blend-mode: normal"><tspan x="0" dy="0">For All Platforms</tspan></text></g></g></svg>