<svg version="1.1" xmlns="http://www.w3.org/2000/svg" xmlns:xlink="http://www.w3.org/1999/xlink" width="648.52943" height="85.92839" viewBox="0,0,648.52943,85.92839"><defs><linearGradient x1="393.31623" y1="137.31565" x2="393.31623" y2="218.08001" gradientUnits="userSpaceOnUse" id="color-1"><stop offset="0" stop-color="#ffffff"/><stop offset="1" stop-color="#ffffff" stop-opacity="0"/></linearGradient><linearGradient x1="394.78266" y1="196.66033" x2="394.78266" y2="215.82323" gradientTransform="translate(-912.75636,-508.22937) scale(2.4083,2.4083)" gradientUnits="userSpaceOnUse" id="color-2"><stop offset="0" stop-color="#ffffff"/><stop offset="1" stop-color="#ffffff" stop-opacity="0"/></linearGradient><linearGradient x1="463.27989" y1="137.03579" x2="463.27989" y2="217.80015" gradientUnits="userSpaceOnUse" id="color-3"><stop offset="0" stop-color="#ffffff"/><stop offset="1" stop-color="#ffffff" stop-opacity="0"/></linearGradient><linearGradient x1="458.86894" y1="196.38022" x2="458.86894" y2="215.54313" gradientTransform="translate(-1067.09617,-507.55537) scale(2.4083,2.4083)" gradientUnits="userSpaceOnUse" id="color-4"><stop offset="0" stop-color="#ffffff"/><stop offset="1" stop-color="#ffffff" stop-opacity="0"/></linearGradient><linearGradient x1="530.445" y1="137.03579" x2="530.445" y2="217.80015" gradientUnits="userSpaceOnUse" id="color-5"><stop offset="0" stop-color="#ffffff"/><stop offset="1" stop-color="#ffffff" stop-opacity="0"/></linearGradient><linearGradient x1="520.79839" y1="199.15523" x2="520.79839" y2="215.01711" gradientTransform="translate(-1477.26143,-614.05331) scale(2.90949,2.90949)" gradientUnits="userSpaceOnUse" id="color-6"><stop offset="0" stop-color="#ffffff"/><stop offset="1" stop-color="#ffffff" stop-opacity="0"/></linearGradient><linearGradient x1="-60.47645" y1="167.21192" x2="-60.47645" y2="213.59192" gradientUnits="userSpaceOnUse" id="color-7"><stop offset="0" stop-color="#005dc1" stop-opacity="0"/><stop offset="1" stop-color="#005dc1"/></linearGradient><linearGradient x1="-31.29176" y1="166.42315" x2="-31.29176" y2="212.80315" gradientUnits="userSpaceOnUse" id="color-8"><stop offset="0" stop-color="#e1565d" stop-opacity="0"/><stop offset="1" stop-color="#e1565d"/></linearGradient><linearGradient x1="-54.95503" y1="189.61315" x2="-7.6285" y2="189.61315" gradientUnits="userSpaceOnUse" id="color-9"><stop offset="0" stop-color="#ffffff"/><stop offset="1" stop-color="#ffffff" stop-opacity="0"/></linearGradient><linearGradient x1="-46.27849" y1="141.97111" x2="-46.27849" y2="188.35111" gradientUnits="userSpaceOnUse" id="color-10"><stop offset="0" stop-color="#e3b700"/><stop offset="1" stop-color="#e3b700" stop-opacity="0"/></linearGradient><linearGradient x1="-46.27849" y1="141.97111" x2="-46.27849" y2="188.35111" gradientUnits="userSpaceOnUse" id="color-11"><stop offset="0" stop-color="#ffffff"/><stop offset="1" stop-color="#ffffff" stop-opacity="0"/></linearGradient></defs><g transform="translate(84.38971,-137.0358)"><g data-paper-data="{&quot;isPaintingLayer&quot;:true}" stroke-linecap="butt" stroke-linejoin="miter" stroke-miterlimit="10" stroke-dasharray="" stroke-dashoffset="0" style="mix-blend-mode: normal"><path d="M421.62767,139.11501c0.20273,0 0.40941,0 0.61214,0.001c0.17222,0.001 0.34839,0.00395 0.52061,0.00691c0.37889,0.00985 0.75779,0.03254 1.13078,0.09958c0.3779,0.06707 0.73023,0.18044 1.07763,0.35496c0.33756,0.17354 0.64657,0.39934 0.91328,0.66753c0.26966,0.26821 0.49403,0.57878 0.66724,0.91798c0.17419,0.34412 0.2854,0.69807 0.35036,1.07672c0.06987,0.37468 0.09152,0.75428 0.10432,1.13293c0.00295,0.17354 0.00295,0.34807 0.00295,0.52159c0.00395,0.20508 0.00395,0.41116 0.00395,0.61824v73.05532c0,0.20805 0,0.41314 -0.00395,0.61921c0,0.17551 0,0.34609 -0.00295,0.5216c-0.01279,0.37862 -0.03445,0.75825 -0.10432,1.13292c-0.06494,0.37862 -0.17616,0.73458 -0.35036,1.07772c-0.17321,0.33722 -0.3976,0.64781 -0.66724,0.91404c-0.2667,0.27016 -0.57572,0.49497 -0.91328,0.66654c-0.34739,0.17749 -0.69973,0.2889 -1.07763,0.35694c-0.37299,0.06802 -0.75187,0.08972 -1.13078,0.10057c-0.17222,0.00395 -0.34839,0.00591 -0.52061,0.00591c-0.20273,0.001 -0.40941,0.001 -0.61214,0.001h-51.26278c-0.20765,0 -0.41235,0 -0.61903,-0.001c-0.17321,0 -0.34542,-0.00197 -0.51863,-0.00591c-0.37694,-0.01085 -0.75681,-0.03254 -1.13274,-0.10057c-0.3779,-0.06802 -0.72924,-0.17945 -1.07369,-0.35694c-0.33756,-0.17155 -0.64756,-0.39639 -0.91426,-0.66654c-0.27064,-0.26623 -0.49403,-0.57681 -0.66627,-0.91404c-0.17517,-0.34313 -0.28737,-0.69907 -0.35233,-1.07772c-0.06889,-0.37468 -0.09152,-0.75428 -0.10137,-1.13292c-0.0059,-0.17551 -0.0059,-0.34609 -0.00885,-0.5216c0,-0.20608 0,-0.41115 0,-0.61921v-73.05532c0,-0.20705 0,-0.41314 0,-0.61824c0.00295,-0.17354 0.00295,-0.34807 0.00885,-0.52159c0.00984,-0.37862 0.03248,-0.75825 0.10137,-1.13293c0.06494,-0.37862 0.17715,-0.73261 0.35233,-1.07672c0.17222,-0.33918 0.39562,-0.64978 0.66627,-0.91798c0.2667,-0.26821 0.57671,-0.49399 0.91426,-0.66753c0.34445,-0.17453 0.69578,-0.28791 1.07369,-0.35496c0.37595,-0.06707 0.75582,-0.08972 1.13274,-0.09958c0.17321,-0.00295 0.34542,-0.00591 0.51863,-0.00691c0.20667,-0.001 0.41137,-0.001 0.61903,-0.001h51.26278" fill="#005dc1" fill-rule="evenodd" stroke="none" stroke-width="1"/><path d="M369.33867,218.07993c-0.19335,0 -0.38394,0 -0.57637,-0.00096c-0.1602,0 -0.31579,-0.00195 -0.47416,-0.0058c-0.28818,-0.00869 -0.63067,-0.0251 -0.96123,-0.0869c-0.30751,-0.05889 -0.57083,-0.14964 -0.82496,-0.28676c-0.25964,-0.13806 -0.49165,-0.31571 -0.69236,-0.52813c-0.20716,-0.21243 -0.37565,-0.45572 -0.50823,-0.72799c-0.1289,-0.26357 -0.21729,-0.54552 -0.26978,-0.8651c-0.06262,-0.36207 -0.07826,-0.73089 -0.0847,-1.01182c-0.00369,-0.11973 -0.00553,-0.23172 -0.00644,-0.34468l-0.00184,-0.16026v-72.73615l0.00184,-0.15062c0.00091,-0.112 0.00276,-0.22496 0.00644,-0.33696c0.00644,-0.28772 0.02209,-0.65558 0.0838,-1.01184c0.0534,-0.32345 0.14179,-0.60536 0.27069,-0.86992c0.13259,-0.2742 0.302,-0.51751 0.50362,-0.72703c0.20531,-0.21627 0.43825,-0.39489 0.69605,-0.53296c0.25595,-0.13615 0.52573,-0.22883 0.82404,-0.28385c0.34526,-0.06469 0.69698,-0.0811 0.96491,-0.08786l0.11232,-0.00195c0.12062,-0.00288 0.24031,-0.00483 0.36092,-0.0058c0.19152,-0.00096 0.3821,-0.00096 0.57544,-0.00096h47.9587c0.18874,0 0.38118,0 0.56993,0.00096c0.12154,0.00096 0.24767,0.00386 0.37104,0.0058l0.10863,0.00195c0.26331,0.00676 0.61503,0.02319 0.95477,0.0869c0.302,0.056 0.5736,0.14964 0.83415,0.28676c0.25227,0.13615 0.48613,0.31476 0.68961,0.52811c0.20257,0.21144 0.37288,0.45765 0.50823,0.73091c0.12614,0.26456 0.21452,0.54744 0.26516,0.86121c0.06077,0.34083 0.07826,0.6913 0.0893,1.01956c0.00184,0.15255 0.00184,0.32056 0.00184,0.48759c0.0046,0.21048 0.00369,0.40744 0.00369,0.60537v71.53602c0,0.19889 0.00091,0.39489 -0.00369,0.5909c0,0.18441 0,0.34758 -0.00276,0.51751c-0.01013,0.31379 -0.02761,0.66427 -0.08654,0.99545c-0.0534,0.32538 -0.14087,0.60826 -0.26885,0.87475c-0.13351,0.26938 -0.30291,0.51365 -0.50271,0.72027c-0.20716,0.21917 -0.43919,0.39587 -0.69605,0.53296c-0.2578,0.1371 -0.52204,0.22883 -0.83233,0.28772c-0.32685,0.0618 -0.66937,0.07823 -0.96123,0.08786c-0.15284,0.00288 -0.31304,0.00483 -0.46957,0.00483c-0.19152,0.00096 -0.38394,0.00096 -0.57268,0.00096h-47.9587" fill="url(#color-1)" fill-rule="evenodd" stroke="none" stroke-width="0"/><path d="M373.98335,165.25614v-18.44536h18.0973v18.44536z" fill="#005dc1" fill-rule="nonzero" stroke="none" stroke-width="0"/><path d="M394.51686,165.48816v-18.44536h18.0973v18.44536z" fill="#005dc1" fill-rule="nonzero" stroke="none" stroke-width="0"/><path d="M373.98335,185.90563v-18.44536h18.0973v18.44536z" fill="#005dc1" fill-rule="nonzero" stroke="none" stroke-width="0"/><path d="M394.51686,186.13765v-18.44536h18.0973v18.44536z" fill="#005dc1" fill-rule="nonzero" stroke="none" stroke-width="0"/><text transform="translate(379.00498,211.03273) scale(0.41523,0.41523)" font-size="40" xml:space="preserve" fill="url(#color-2)" fill-rule="nonzero" stroke="none" stroke-width="1" stroke-linecap="butt" stroke-linejoin="miter" stroke-miterlimit="10" stroke-dasharray="" stroke-dashoffset="0" font-family="&quot;Microsoft YaHei&quot;, &quot;微软雅黑&quot;, STXihei, &quot;华文细黑&quot;" font-weight="normal" text-anchor="start" style="mix-blend-mode: normal"><tspan x="0" dy="0">Win</tspan></text><path d="M491.59135,138.83515c0.20273,0 0.40941,0 0.61214,0.00098c0.17222,0.001 0.34839,0.00395 0.52061,0.00691c0.3789,0.00985 0.75779,0.03256 1.13078,0.09958c0.37791,0.06706 0.73023,0.18044 1.07763,0.35496c0.33756,0.17353 0.64657,0.39934 0.91328,0.66753c0.26966,0.26822 0.49403,0.57878 0.66724,0.91796c0.17419,0.34412 0.2854,0.69807 0.35036,1.07672c0.06987,0.37468 0.09152,0.75428 0.10432,1.13292c0.00295,0.17353 0.00295,0.34807 0.00295,0.5216c0.00393,0.20508 0.00395,0.41116 0.00395,0.61824v73.05532c0,0.20805 0,0.41314 -0.00395,0.61921c0,0.17551 0,0.34609 -0.00295,0.5216c-0.01279,0.37865 -0.03445,0.75825 -0.10432,1.13293c-0.06494,0.37865 -0.17616,0.73458 -0.35036,1.07772c-0.17321,0.33722 -0.39759,0.64781 -0.66724,0.91404c-0.2667,0.27016 -0.57572,0.49497 -0.91328,0.66654c-0.34739,0.17751 -0.69972,0.2889 -1.07763,0.35694c-0.37299,0.06802 -0.75187,0.08972 -1.13078,0.10057c-0.17222,0.00395 -0.34839,0.00591 -0.52061,0.00591c-0.20273,0.001 -0.40941,0.001 -0.61214,0.001h-51.26279c-0.20765,0 -0.41236,0 -0.61903,-0.001c-0.17321,0 -0.34542,-0.00197 -0.51863,-0.00591c-0.37694,-0.01085 -0.75681,-0.03256 -1.13274,-0.10057c-0.37791,-0.06802 -0.72924,-0.17944 -1.07369,-0.35694c-0.33756,-0.17155 -0.64757,-0.39639 -0.91426,-0.66654c-0.27063,-0.26623 -0.49405,-0.57681 -0.66627,-0.91404c-0.17517,-0.34312 -0.28737,-0.69907 -0.35231,-1.07772c-0.06889,-0.37468 -0.09154,-0.75428 -0.10137,-1.13293c-0.0059,-0.17551 -0.0059,-0.34609 -0.00885,-0.5216c0,-0.20608 0,-0.41116 0,-0.61921v-73.05532c0,-0.20705 0,-0.41314 0,-0.61824c0.00295,-0.17353 0.00295,-0.34807 0.00885,-0.5216c0.00984,-0.37865 0.03249,-0.75825 0.10137,-1.13292c0.06494,-0.37865 0.17714,-0.73261 0.35231,-1.07672c0.17222,-0.33918 0.39562,-0.64978 0.66627,-0.91796c0.2667,-0.26822 0.57671,-0.49399 0.91426,-0.66753c0.34445,-0.17453 0.69578,-0.28791 1.07369,-0.35496c0.37594,-0.06706 0.75582,-0.08972 1.13274,-0.09958c0.17321,-0.00295 0.34542,-0.00591 0.51863,-0.00691c0.20667,-0.001 0.41137,-0.00098 0.61903,-0.00098h51.26279" fill="#e3b700" fill-rule="evenodd" stroke="none" stroke-width="1"/><path d="M439.30234,217.80008c-0.19335,0 -0.38392,0 -0.57635,-0.00096c-0.16022,0 -0.31579,-0.00196 -0.47416,-0.0058c-0.28818,-0.00869 -0.63067,-0.02508 -0.96123,-0.08688c-0.30751,-0.05889 -0.57083,-0.14964 -0.82496,-0.28676c-0.25964,-0.13806 -0.49165,-0.31571 -0.69236,-0.52813c-0.20716,-0.21243 -0.37566,-0.45572 -0.50824,-0.72799c-0.1289,-0.26357 -0.21728,-0.54552 -0.26975,-0.8651c-0.06262,-0.36207 -0.07826,-0.73091 -0.0847,-1.01184c-0.00369,-0.11973 -0.00553,-0.23172 -0.00644,-0.34468l-0.00184,-0.16026v-72.73615l0.00184,-0.15062c0.00091,-0.11199 0.00276,-0.22496 0.00644,-0.33697c0.00644,-0.28772 0.02209,-0.65559 0.08379,-1.01184c0.05341,-0.32345 0.14179,-0.60536 0.27069,-0.86991c0.13259,-0.2742 0.302,-0.51752 0.50363,-0.72704c0.20532,-0.21627 0.43825,-0.39488 0.69605,-0.53294c0.25595,-0.13614 0.52573,-0.22883 0.82404,-0.28385c0.34526,-0.06468 0.69698,-0.0811 0.96489,-0.08787l0.11232,-0.00195c0.12062,-0.00288 0.24031,-0.00483 0.36092,-0.0058c0.19151,-0.00097 0.3821,-0.00096 0.57544,-0.00096h47.9587c0.18874,0 0.38118,0 0.56993,0.00096c0.12154,0.00097 0.24767,0.00386 0.37104,0.0058l0.10865,0.00195c0.26331,0.00676 0.61503,0.02319 0.95476,0.0869c0.30199,0.05602 0.5736,0.14964 0.83416,0.28676c0.25227,0.13614 0.48613,0.31475 0.68961,0.52811c0.20257,0.21145 0.37288,0.45765 0.50823,0.73091c0.12614,0.26454 0.21452,0.54744 0.26515,0.86123c0.06077,0.34083 0.07826,0.6913 0.0893,1.01956c0.00184,0.15255 0.00184,0.32056 0.00184,0.48759c0.0046,0.21048 0.00369,0.40744 0.00369,0.60537v71.53602c0,0.19889 0.00091,0.39489 -0.00369,0.5909c0,0.18441 0,0.34758 -0.00275,0.51751c-0.01013,0.31379 -0.02762,0.66427 -0.08654,0.99545c-0.05341,0.32538 -0.14087,0.60826 -0.26885,0.87475c-0.13351,0.26938 -0.30291,0.51365 -0.50271,0.72027c-0.20716,0.21917 -0.43919,0.39587 -0.69605,0.53296c-0.2578,0.13711 -0.52204,0.22883 -0.8323,0.28772c-0.32686,0.0618 -0.66934,0.07822 -0.96123,0.08787c-0.15284,0.00288 -0.31304,0.00483 -0.46957,0.00483c-0.19151,0.00097 -0.38394,0.00097 -0.57268,0.00097h-47.9587" fill="url(#color-3)" fill-rule="evenodd" stroke="none" stroke-width="0"/><text transform="translate(443.0917,210.75286) scale(0.41523,0.41523)" font-size="40" xml:space="preserve" fill="url(#color-4)" fill-rule="nonzero" stroke="none" stroke-width="1" stroke-linecap="butt" stroke-linejoin="miter" stroke-miterlimit="10" stroke-dasharray="" stroke-dashoffset="0" font-family="&quot;Microsoft YaHei&quot;, &quot;微软雅黑&quot;, STXihei, &quot;华文细黑&quot;" font-weight="normal" text-anchor="start" style="mix-blend-mode: normal"><tspan x="0" dy="0">Linux</tspan></text><path d="M464.70208,155.6849c0,0.13353 -0.13354,0.13353 -0.13354,0.13353h-0.13353c-0.13354,0 -0.13353,-0.13353 -0.26708,-0.26708c0,0 -0.13354,-0.13353 -0.13354,-0.26708c0,-0.13353 0,-0.13353 0.13354,-0.13353l0.26708,0.13353c0.13354,0.13353 0.26708,0.26708 0.26708,0.40061M462.29839,154.34951c0,-0.66769 -0.26708,-1.06832 -0.66769,-1.06832c0,0 0,0.13354 -0.13354,0.13354v0.26708h0.40061c0,0.26708 0.13354,0.40061 0.13354,0.66769h0.26708M466.97223,153.68183c0.26708,0 0.4006,0.26708 0.53414,0.66769h0.26708c-0.13354,-0.13353 -0.13354,-0.26708 -0.13354,-0.40061c0,-0.13353 0,-0.26707 -0.13354,-0.40061c-0.13354,-0.13353 -0.26707,-0.26708 -0.4006,-0.26708c0,0 -0.13353,0.13354 -0.26708,0.13354c0,0.13353 0.13353,0.13353 0.13353,0.26708M462.96608,155.81844c-0.13354,0 -0.13353,0 -0.13353,-0.13353c0,-0.13353 0,-0.26708 0.13353,-0.40061c0.26708,0 0.40061,-0.13353 0.40061,-0.13353c0.13354,0 0.13353,0.13353 0.13353,0.13353c0,0.13353 -0.13353,0.26708 -0.40061,0.53414h-0.13353M461.49716,155.6849c-0.53414,-0.26708 -0.66769,-0.66769 -0.66769,-1.33539c0,-0.40061 0,-0.66769 0.26708,-0.93478c0.13354,-0.26708 0.40061,-0.40061 0.66769,-0.40061c0.26708,0 0.4006,0.13353 0.66769,0.40061c0.13354,0.40061 0.26708,0.80124 0.26708,1.20184v0.26708h0.13354v-0.13353c0.13354,0 0.13353,-0.26708 0.13353,-0.80124c0,-0.40061 0,-0.80124 -0.26708,-1.20184c-0.26708,-0.40061 -0.53414,-0.66769 -1.06831,-0.66769c-0.40061,0 -0.80124,0.26708 -0.93478,0.66769c-0.26708,0.53414 -0.32049,0.93478 -0.32049,1.60245c0,0.53414 0.18696,1.06831 0.7211,1.60245c0.13354,-0.13353 0.26707,-0.13353 0.4006,-0.26708M478.18949,174.51384c0.13354,0 0.13354,-0.05341 0.13354,-0.17359c0,-0.29378 -0.13354,-0.64098 -0.53417,-1.02825c-0.40061,-0.40061 -1.06831,-0.65435 -1.86953,-0.76116c-0.13354,-0.01335 -0.26708,-0.01335 -0.26708,-0.01335c-0.13354,-0.02671 -0.13353,-0.0267 -0.26708,-0.0267c-0.13354,-0.01335 -0.4006,-0.04006 -0.53414,-0.06678c0.40061,-1.2419 0.53414,-2.33691 0.53414,-3.29839c0,-1.33539 -0.26708,-2.27016 -0.80124,-3.07139c-0.53414,-0.80124 -1.06831,-1.20184 -1.736,-1.33539c-0.13354,0.13353 -0.13354,0.13353 -0.13354,0.26708c0.66769,0.26708 1.33539,0.80124 1.736,1.60245c0.40061,0.93478 0.53414,1.736 0.53414,2.67078c0,0.74781 -0.13354,1.85618 -0.66769,3.27169c-0.53414,0.21366 -1.06831,0.70775 -1.46892,1.48227c0,0.12018 -0.00001,0.18696 0.13353,0.18696c0,0 0.13353,-0.12018 0.26708,-0.3472c0.26708,-0.22702 0.40061,-0.45405 0.66769,-0.68106c0.40061,-0.22702 0.66769,-0.3472 1.06831,-0.3472c0.66769,0 1.33539,0.09347 1.736,0.28042c0.53414,0.17359 0.80122,0.36055 0.93478,0.57423c0.13354,0.20031 0.26707,0.38726 0.4006,0.56086c0,0.17359 0.13354,0.25371 0.13354,0.25371M465.90392,155.15076c-0.13354,-0.13353 -0.13353,-0.40061 -0.13353,-0.66769c0,-0.53414 0,-0.80124 0.26708,-1.20185c0.26708,-0.26708 0.53414,-0.4006 0.80124,-0.4006c0.40061,0 0.66769,0.26708 0.93478,0.53414c0.13354,0.40061 0.26708,0.66769 0.26708,1.06831c0,0.66769 -0.26708,1.06831 -0.80124,1.20185c0,0 0.13353,0.13353 0.26708,0.13353c0.26708,0 0.40061,0.13353 0.66769,0.26708c0.13354,-0.80124 0.26708,-1.33539 0.26708,-2.00308c0,-0.80124 -0.13353,-1.33539 -0.4006,-1.736c-0.40061,-0.40061 -0.80124,-0.53417 -1.33539,-0.53417c-0.40061,0 -0.80122,0.13354 -1.20184,0.40061c-0.26708,0.40061 -0.40061,0.66769 -0.40061,1.06831c0,0.66769 0.13354,1.20185 0.40061,1.736c0.13354,0 0.26707,0.13353 0.40061,0.13353M467.50639,157.28736c-1.736,1.20184 -3.07139,1.736 -4.1397,1.736c-0.93478,0 -1.86954,-0.40061 -2.67078,-1.06831c0.13354,0.26708 0.26708,0.53414 0.40061,0.66769l0.80124,0.80124c0.53414,0.53414 1.20184,0.80124 1.86954,0.80124c0.93478,0 2.00308,-0.53414 3.33846,-1.46892l1.20185,-0.80124c0.26708,-0.26708 0.53414,-0.53414 0.53414,-0.93478c0,-0.13353 0,-0.26708 -0.13354,-0.26708c-0.13354,-0.26708 -0.80122,-0.66769 -2.13661,-1.06831c-1.20185,-0.53414 -2.13663,-0.80124 -2.67078,-0.80124c-0.40061,0 -1.06831,0.26708 -2.00308,0.80124c-0.80124,0.53414 -1.33539,1.06831 -1.33539,1.60245c0,0 0.13353,0.13353 0.26708,0.40061c0.80124,0.66769 1.60245,1.06831 2.4037,1.06831c1.06831,0 2.4037,-0.53414 4.1397,-1.86954v0.26708c0.13354,0 0.13353,0.13353 0.13353,0.13353M470.57777,184.26216c0.53414,1.00421 1.46893,1.50899 2.53724,1.50899c0.26708,0 0.53414,-0.04006 0.80124,-0.12018c0.26708,-0.05341 0.53414,-0.1469 0.66769,-0.25372c0.13354,-0.09348 0.26708,-0.18695 0.40061,-0.29377c0.26708,-0.09348 0.26707,-0.16025 0.4006,-0.22702l2.27016,-1.96301c0.53414,-0.42601 1.06831,-0.79857 1.736,-1.12172c0.53414,-0.32049 1.06831,-0.53414 1.33539,-0.65435c0.40061,-0.10684 0.66769,-0.26707 0.93478,-0.48073c0.13354,-0.20031 0.26708,-0.45405 0.26708,-0.77453c0,-0.38726 -0.26708,-0.68104 -0.53414,-0.89471c-0.26708,-0.21366 -0.53414,-0.36055 -0.80124,-0.45405c-0.26708,-0.09348 -0.53414,-0.30714 -0.93478,-0.66769c-0.26708,-0.3472 -0.53414,-0.82795 -0.66769,-1.45557l-0.13353,-0.77453c-0.13354,-0.36055 -0.13353,-0.62763 -0.26708,-0.77453c0,-0.04006 0,-0.05341 -0.13354,-0.05341c-0.13354,0 -0.4006,0.12018 -0.53414,0.3472c-0.26708,0.22702 -0.53414,0.48073 -0.80124,0.74781c-0.13354,0.26708 -0.53414,0.50744 -0.80124,0.73447c-0.40061,0.22702 -0.80124,0.3472 -1.06831,0.3472c-1.06831,0 -1.60245,-0.29377 -2.0031,-0.868c-0.26708,-0.42732 -0.4006,-0.92142 -0.53414,-1.48227c-0.26708,-0.22702 -0.40061,-0.3472 -0.66769,-0.3472c-0.66769,0 -0.93478,0.69441 -0.93478,2.09655v4.15305c0,0.12018 -0.13353,0.38726 -0.13353,0.80124c-0.13354,0.41396 -0.13354,0.88403 -0.13354,1.41551l-0.26708,1.48227v0.0227M451.21468,183.55173c1.2419,0.18161 2.67076,0.57021 4.28659,1.16313c1.61581,0.58757 2.60401,0.89472 2.96456,0.89472c0.93478,0 1.70929,-0.41396 2.35028,-1.21387c0.13354,-0.25907 0.13353,-0.56353 0.13353,-0.91339c0,-1.26194 -0.76116,-2.85772 -2.28352,-4.79403l-0.90807,-1.21521c-0.18696,-0.25371 -0.41396,-0.64098 -0.70775,-1.16179c-0.28043,-0.52079 -0.53414,-0.92142 -0.73447,-1.20184c-0.17359,-0.30714 -0.45405,-0.61426 -0.8146,-0.92142c-0.3472,-0.30714 -0.74781,-0.50744 -1.18849,-0.61429c-0.56086,0.10684 -0.94813,0.29378 -1.13508,0.54751c-0.18696,0.25371 -0.29377,0.53414 -0.32049,0.82795c-0.04006,0.28043 -0.12018,0.46738 -0.25372,0.56086c-0.13354,0.08012 -0.36055,0.1469 -0.66769,0.21366c-0.06677,0 -0.18696,-0.00001 -0.36055,0.01334h-0.36055c-0.70775,0 -1.1885,0.08012 -1.44221,0.21366c-0.33384,0.38726 -0.50744,0.82794 -0.50744,1.29533c0,0.21366 0.05341,0.57423 0.16024,1.08166c0.10684,0.49408 0.16024,0.89471 0.16024,1.17515c0,0.54751 -0.16025,1.09502 -0.49411,1.64253c-0.33384,0.57423 -0.50744,1.00154 -0.50744,1.30601c0.13354,0.51812 1.0149,0.88269 2.6307,1.09635M455.66151,171.40908c0,-0.92142 0.24037,-1.93631 0.73447,-3.13815c0.48074,-1.20184 0.96146,-2.00308 1.42886,-2.53723c-0.02671,-0.13353 -0.09348,-0.13354 -0.20031,-0.13354l-0.13353,-0.13353c-0.38726,0.40061 -0.85465,1.33539 -1.41551,2.67076c-0.56086,1.20184 -0.85465,2.3102 -0.85465,3.1248c0,0.60092 0.14689,1.12172 0.41396,1.57576c0.29378,0.44067 1.00154,1.08166 2.12326,1.89625l1.41551,0.92142c1.50899,1.30868 2.31022,2.21673 2.31022,2.7509c0,0.28043 -0.13353,0.56086 -0.53414,0.86801c-0.26708,0.32049 -0.62763,0.48073 -0.93478,0.48073c-0.02671,0 -0.04005,0.02671 -0.04005,0.09348c0,0.01335 0.13353,0.28043 0.41396,0.80124c0.56086,0.76116 1.76271,1.13508 3.36517,1.13508c2.93784,0 5.20801,-1.20185 6.94402,-3.60555c0,-0.66769 0,-1.08166 -0.13354,-1.25526v-0.49411c0,-0.86801 0.13354,-1.52235 0.40061,-1.94965c0.26708,-0.42732 0.53414,-0.62763 0.93478,-0.62763c0.26708,0 0.53414,0.09348 0.80124,0.29378c0.13354,-1.02825 0.13354,-1.92296 0.13354,-2.7242c0,-1.21521 0,-2.21673 -0.26708,-3.1515c-0.13354,-0.80124 -0.40061,-1.46892 -0.66769,-2.00308l-0.80124,-1.20185c-0.26708,-0.40061 -0.40061,-0.80124 -0.66769,-1.20184c-0.13354,-0.53414 -0.26708,-0.93478 -0.26708,-1.60245c-0.40061,-0.66769 -0.66769,-1.33539 -1.06831,-2.00308c-0.26708,-0.66769 -0.53414,-1.33539 -0.80124,-1.86954l-1.20185,0.93478c-1.33539,0.93478 -2.4037,1.33539 -3.33846,1.33539c-0.80124,0 -1.46892,-0.13353 -1.86954,-0.66769l-0.80124,-0.66769c0,0.40061 -0.13353,0.93478 -0.40061,1.46892l-0.8413,1.60245c-0.3739,0.93478 -0.5742,1.46892 -0.61426,1.86954c-0.05341,0.26708 -0.09348,0.53414 -0.12019,0.53414l-1.00154,2.00308c-1.08166,2.00308 -1.62917,3.85926 -1.62917,5.39496c0,0.30714 0.02671,0.62763 0.08012,0.94813c-0.60092,-0.41396 -0.89471,-0.98819 -0.89471,-1.736M465.22289,184.04182c-1.736,0 -3.07139,0.23503 -4.00615,0.70107v-0.04006c-0.66769,0.80124 -1.41551,1.21521 -2.45711,1.21521c-0.65435,0 -1.68259,-0.25371 -3.07139,-0.76116c-1.40215,-0.48073 -2.64407,-0.84929 -3.72573,-1.09235c-0.10684,-0.03071 -0.3472,-0.07611 -0.73447,-0.13754c-0.3739,-0.06009 -0.7211,-0.12151 -1.02825,-0.18295c-0.28043,-0.06009 -0.60092,-0.15091 -0.94813,-0.27375c-0.33384,-0.10549 -0.60092,-0.24304 -0.80124,-0.40995c-0.18429,-0.16826 -0.27509,-0.35788 -0.27509,-0.57021c0,-0.21366 0.0454,-0.44202 0.13621,-0.68506c0.08546,-0.14689 0.17894,-0.29377 0.27242,-0.42732c0.09348,-0.14689 0.17359,-0.28043 0.22701,-0.41396c0.08012,-0.12018 0.13354,-0.24037 0.18696,-0.3739c0.05341,-0.12018 0.10684,-0.24036 0.13354,-0.38726c0.02671,-0.13353 0.05341,-0.26708 0.05341,-0.40061c0,-0.13353 -0.05341,-0.53414 -0.16024,-1.2419c-0.10684,-0.69441 -0.16024,-1.13508 -0.16024,-1.32202c0,-0.58757 0.13353,-1.05497 0.42732,-1.3888c0.29378,-0.33384 0.57423,-0.50745 0.868,-0.50745h1.5357c0.12019,0 0.30714,-0.06678 0.58757,-0.22702c0.09348,-0.21366 0.17359,-0.38727 0.22702,-0.54751c0.06677,-0.16024 0.09348,-0.28042 0.12019,-0.33384c0.02671,-0.08012 0.05341,-0.16024 0.08012,-0.22702c0.05341,-0.09348 0.12018,-0.20031 0.21366,-0.30714c-0.10684,-0.13353 -0.16024,-0.30714 -0.16024,-0.5208c0,-0.14689 0,-0.28043 0.02671,-0.36055c0,-0.48073 0.22702,-1.16179 0.70775,-2.05649l0.46739,-0.84128c0.38726,-0.7211 0.68104,-1.25526 0.89471,-1.78941c0.22702,-0.53414 0.46738,-1.33539 0.73447,-2.4037c0.21366,-0.93478 0.72112,-1.86954 1.52235,-2.80431l1.00152,-1.20184c0.69441,-0.80124 1.14844,-1.46892 1.40217,-2.00308c0.25371,-0.53414 0.38726,-1.20184 0.38726,-1.736c0,-0.26708 -0.06678,-1.06831 -0.21366,-2.4037c-0.13354,-1.33539 -0.20031,-2.67078 -0.20031,-3.87262c0,-0.93478 0.08012,-1.60245 0.25371,-2.27016c0.17359,-0.66769 0.48074,-1.33539 0.93478,-1.86954c0.40061,-0.53414 0.93478,-1.06831 1.736,-1.33539c0.80124,-0.26708 1.736,-0.40061 2.80431,-0.40061c0.40061,0 0.80122,0 1.20184,0.13353c0.40061,0 0.93478,0.13353 1.60247,0.40061c0.53414,0.26708 1.06831,0.53414 1.46892,0.93478c0.53414,0.40061 0.93478,1.06831 1.33539,1.736c0.26708,0.80124 0.53414,1.60247 0.66769,2.67078c0.13354,0.66769 0.13353,1.33539 0.26708,2.27014c0,0.80124 0.13353,1.33539 0.13353,1.736c0.13354,0.40061 0.13353,0.93478 0.26708,1.60247c0.13354,0.53414 0.26708,1.06831 0.53414,1.46892c0.26708,0.53414 0.53414,1.06831 0.93478,1.60245c0.40061,0.66769 0.93478,1.33539 1.46892,2.13661c1.20185,1.33539 2.13663,2.80431 2.67078,4.27324c0.66769,1.33539 1.06831,3.07139 1.06831,4.92756c0,0.92142 -0.13354,1.81612 -0.40061,2.68412c0.26708,0 0.40061,0.10683 0.53414,0.29377c0.13354,0.18696 0.26707,0.58757 0.40061,1.21521l0.13353,0.98819c0.13354,0.29378 0.26708,0.57423 0.66769,0.8146c0.26708,0.24036 0.53414,0.44068 0.93477,0.60092c0.26708,0.13353 0.66769,0.3205 0.93478,0.56086c0.26708,0.26708 0.40061,0.54751 0.40061,0.84128c0,0.45405 -0.13354,0.78789 -0.40061,1.02825c-0.26708,0.26708 -0.53414,0.45402 -0.93478,0.57423c-0.26708,0.13353 -0.80124,0.40061 -1.60245,0.7772c-0.66769,0.39527 -1.33539,0.87469 -2.00308,1.44221l-1.33539,1.13641c-0.53414,0.52079 -1.06831,0.89471 -1.46892,1.12172c-0.40061,0.24036 -0.93478,0.36055 -1.46892,0.36055l-0.93478,-0.10684c-1.06831,-0.28043 -1.736,-0.81459 -2.13661,-1.62917c-2.13661,-0.25907 -3.87263,-0.38726 -4.94094,-0.38726" fill="#d9b526" fill-rule="nonzero" stroke="#e6c01f" stroke-width="0.5"/><path d="M558.75645,138.83515c0.20273,0 0.40941,0 0.61214,0.00098c0.17222,0.001 0.34839,0.00395 0.52061,0.00691c0.3789,0.00985 0.75779,0.03256 1.13078,0.09958c0.37791,0.06706 0.73023,0.18044 1.07763,0.35496c0.33756,0.17353 0.64657,0.39934 0.91328,0.66753c0.26966,0.26822 0.49403,0.57878 0.66724,0.91796c0.17419,0.34412 0.2854,0.69807 0.35036,1.07672c0.06987,0.37468 0.09152,0.75428 0.10432,1.13292c0.00295,0.17353 0.00295,0.34807 0.00295,0.5216c0.00393,0.20508 0.00395,0.41116 0.00395,0.61824v73.05532c0,0.20805 0,0.41314 -0.00395,0.61921c0,0.17551 0,0.34609 -0.00295,0.5216c-0.01279,0.37865 -0.03445,0.75825 -0.10432,1.13293c-0.06494,0.37865 -0.17616,0.73458 -0.35036,1.07772c-0.17321,0.33722 -0.39759,0.64781 -0.66724,0.91404c-0.2667,0.27016 -0.57572,0.49497 -0.91328,0.66654c-0.34739,0.17751 -0.69972,0.2889 -1.07763,0.35694c-0.37299,0.06802 -0.75187,0.08972 -1.13078,0.10057c-0.17222,0.00395 -0.34839,0.00591 -0.52061,0.00591c-0.20273,0.001 -0.40941,0.001 -0.61214,0.001h-51.26279c-0.20765,0 -0.41236,0 -0.61903,-0.001c-0.17321,0 -0.34542,-0.00197 -0.51863,-0.00591c-0.37694,-0.01085 -0.75681,-0.03256 -1.13274,-0.10057c-0.37791,-0.06802 -0.72924,-0.17944 -1.07369,-0.35694c-0.33756,-0.17155 -0.64757,-0.39639 -0.91426,-0.66654c-0.27063,-0.26623 -0.49405,-0.57681 -0.66627,-0.91404c-0.17517,-0.34312 -0.28737,-0.69907 -0.35231,-1.07772c-0.06889,-0.37468 -0.09154,-0.75428 -0.10137,-1.13293c-0.0059,-0.17551 -0.0059,-0.34609 -0.00885,-0.5216c0,-0.20608 0,-0.41116 0,-0.61921v-73.05532c0,-0.20705 0,-0.41314 0,-0.61824c0.00295,-0.17353 0.00295,-0.34807 0.00885,-0.5216c0.00984,-0.37865 0.03249,-0.75825 0.10137,-1.13292c0.06494,-0.37865 0.17714,-0.73261 0.35231,-1.07672c0.17222,-0.33918 0.39562,-0.64978 0.66627,-0.91796c0.2667,-0.26822 0.57671,-0.49399 0.91426,-0.66753c0.34445,-0.17453 0.69578,-0.28791 1.07369,-0.35496c0.37594,-0.06706 0.75582,-0.08972 1.13274,-0.09958c0.17321,-0.00295 0.34542,-0.00591 0.51863,-0.00691c0.20667,-0.001 0.41137,-0.00098 0.61903,-0.00098h51.26279" fill="#e35656" fill-rule="evenodd" stroke="none" stroke-width="1"/><path d="M506.46746,217.80008c-0.19335,0 -0.38392,0 -0.57635,-0.00096c-0.16022,0 -0.31579,-0.00196 -0.47416,-0.0058c-0.28818,-0.00869 -0.63067,-0.02508 -0.96123,-0.08688c-0.30751,-0.05889 -0.57083,-0.14964 -0.82496,-0.28676c-0.25964,-0.13806 -0.49165,-0.31571 -0.69236,-0.52813c-0.20716,-0.21243 -0.37566,-0.45572 -0.50824,-0.72799c-0.1289,-0.26357 -0.21728,-0.54552 -0.26975,-0.8651c-0.06262,-0.36207 -0.07826,-0.73091 -0.0847,-1.01184c-0.00369,-0.11973 -0.00553,-0.23172 -0.00644,-0.34468l-0.00184,-0.16026v-72.73615l0.00184,-0.15062c0.00091,-0.11199 0.00276,-0.22496 0.00644,-0.33697c0.00644,-0.28772 0.02209,-0.65559 0.08379,-1.01184c0.05341,-0.32345 0.14179,-0.60536 0.27069,-0.86991c0.13259,-0.2742 0.302,-0.51752 0.50363,-0.72704c0.20532,-0.21627 0.43825,-0.39488 0.69605,-0.53294c0.25595,-0.13614 0.52573,-0.22883 0.82404,-0.28385c0.34526,-0.06468 0.69698,-0.0811 0.96489,-0.08787l0.11232,-0.00195c0.12062,-0.00288 0.24031,-0.00483 0.36092,-0.0058c0.19151,-0.00097 0.3821,-0.00096 0.57544,-0.00096h47.9587c0.18874,0 0.38118,0 0.56993,0.00096c0.12154,0.00097 0.24767,0.00386 0.37104,0.0058l0.10865,0.00195c0.26331,0.00676 0.61503,0.02319 0.95476,0.0869c0.30199,0.05602 0.5736,0.14964 0.83416,0.28676c0.25227,0.13614 0.48613,0.31475 0.68961,0.52811c0.20257,0.21145 0.37288,0.45765 0.50823,0.73091c0.12614,0.26454 0.21452,0.54744 0.26515,0.86123c0.06077,0.34083 0.07826,0.6913 0.0893,1.01956c0.00184,0.15255 0.00184,0.32056 0.00184,0.48759c0.0046,0.21048 0.00369,0.40744 0.00369,0.60537v71.53602c0,0.19889 0.00091,0.39489 -0.00369,0.5909c0,0.18441 0,0.34758 -0.00275,0.51751c-0.01013,0.31379 -0.02762,0.66427 -0.08654,0.99545c-0.05341,0.32538 -0.14087,0.60826 -0.26885,0.87475c-0.13351,0.26938 -0.30291,0.51365 -0.50271,0.72027c-0.20716,0.21917 -0.43919,0.39587 -0.69605,0.53296c-0.2578,0.13711 -0.52204,0.22883 -0.8323,0.28772c-0.32686,0.0618 -0.66934,0.07822 -0.96123,0.08787c-0.15284,0.00288 -0.31304,0.00483 -0.46957,0.00483c-0.19151,0.00097 -0.38394,0.00097 -0.57268,0.00097h-47.9587" fill="url(#color-5)" fill-rule="evenodd" stroke="none" stroke-width="0"/><text transform="translate(507.73812,211.05152) scale(0.3437,0.3437)" font-size="40" xml:space="preserve" fill="url(#color-6)" fill-rule="nonzero" stroke="none" stroke-width="1" stroke-linecap="butt" stroke-linejoin="miter" stroke-miterlimit="10" stroke-dasharray="" stroke-dashoffset="0" font-family="&quot;Microsoft YaHei&quot;, &quot;微软雅黑&quot;, STXihei, &quot;华文细黑&quot;" font-weight="normal" text-anchor="start" style="mix-blend-mode: normal"><tspan x="0" dy="0">macOS</tspan></text><path d="M530.28874,170.63686c0,3.20153 -1.66794,5.21649 -4.33216,5.21649c-2.66422,0 -4.33216,-2.02615 -4.33216,-5.21649c0,-3.21274 1.66794,-5.22768 4.33216,-5.22768c2.66422,0 4.33216,2.01496 4.33216,5.22768zM534.00521,159.34193l-1.1642,0.07836c-0.66046,0.04478 -0.95151,0.27985 -0.95151,0.70523c0,0.44777 0.3694,0.69404 0.88433,0.69404c0.70523,0 1.23136,-0.45896 1.23136,-1.07464zM550.66216,166.56217c0,10.62328 -8.40683,19.03012 -19.03012,19.03012c-10.62328,0 -19.03012,-8.40683 -19.03012,-19.03012c0,-10.62328 8.40683,-19.03012 19.03012,-19.03012c10.62328,0 19.03012,8.40683 19.03012,19.03012zM536.04256,159.10685c0,1.54479 0.85075,2.48511 2.23883,2.48511c1.17539,0 1.9142,-0.66046 2.03734,-1.60078h-0.91793c-0.12313,0.51493 -0.52612,0.79478 -1.11941,0.79478c-0.78359,0 -1.26494,-0.63807 -1.26494,-1.67913c0,-1.02986 0.48135,-1.64555 1.26494,-1.64555c0.62688,0 1.01867,0.35821 1.11941,0.81718h0.91793c-0.12313,-0.91793 -0.83956,-1.61197 -2.03734,-1.61197c-1.38808,-0.01119 -2.23883,0.92912 -2.23883,2.44034zM523.2476,156.75607v4.74634h0.94031v-2.91049c0,-0.61567 0.43657,-1.10822 1.00748,-1.10822c0.55971,0 0.91793,0.33582 0.91793,0.87314v3.14557h0.91793v-3.00004c0,-0.5709 0.39181,-1.01867 1.00748,-1.01867c0.61567,0 0.91793,0.31344 0.91793,0.97389v3.04482h0.94031v-3.27989c0,-0.98509 -0.55971,-1.56718 -1.52241,-1.56718c-0.66046,0 -1.20897,0.33582 -1.44405,0.85075h-0.07836c-0.21269,-0.51493 -0.66046,-0.85075 -1.30971,-0.85075c-0.63807,0 -1.11941,0.31344 -1.32091,0.85075h-0.06716v-0.7612zM531.95667,170.63686c0,-4.13065 -2.306,-6.72771 -6.00008,-6.72771c-3.69408,0 -6.00008,2.59704 -6.00008,6.72771c0,4.13065 2.306,6.71651 6.00008,6.71651c3.69408,0 6.00008,-2.59704 6.00008,-6.71651zM532.53878,161.58076c0.62688,0 1.14181,-0.26866 1.43286,-0.75001h0.07836v0.67166h0.90674v-3.24631c0,-0.99629 -0.67166,-1.58957 -1.86942,-1.58957c-1.08585,0 -1.84705,0.52612 -1.94779,1.32091h0.90674c0.10074,-0.34702 0.47016,-0.53732 0.99629,-0.53732c0.63807,0 0.97389,0.29104 0.97389,0.81718v0.41419l-1.28733,0.07836c-1.1306,0.06716 -1.76868,0.55971 -1.76868,1.42167c-0.01119,0.85075 0.66046,1.39927 1.57837,1.39927zM542.80384,173.43541c0,-1.84705 -1.07464,-2.92168 -3.78363,-3.51497l-1.44405,-0.31344c-1.77988,-0.39181 -2.47392,-1.09704 -2.47392,-2.11571c0,-1.32091 1.25375,-2.11571 2.87691,-2.11571c1.70152,0 2.82093,0.87314 2.96646,2.306h1.62316c-0.07836,-2.20526 -1.94779,-3.76124 -4.54483,-3.76124c-2.6978,0 -4.58961,1.51122 -4.58961,3.64931c0,1.84705 1.1306,3.03363 3.73886,3.60452l1.44405,0.31344c1.80226,0.39181 2.52989,1.11941 2.52989,2.20526c0,1.27614 -1.28733,2.20526 -3.04482,2.20526c-1.86942,0 -3.16796,-0.85075 -3.35826,-2.25003h-1.62316c0.15672,2.25003 2.04853,3.70527 4.89186,3.70527c2.8993,0 4.79111,-1.51122 4.79111,-3.91797z" fill="#e35656" fill-rule="nonzero" stroke="none" stroke-width="1"/><path d="M-60.47645,167.21194c13.06885,0 23.66326,10.38251 23.66326,23.18999c0,12.80748 -10.59441,23.18999 -23.66326,23.18999c-13.06885,0 -23.66326,-10.38251 -23.66326,-23.18999c0,-12.80748 10.59441,-23.18999 23.66326,-23.18999z" fill="url(#color-7)" fill-rule="nonzero" stroke="#ffffff" stroke-width="0.5"/><path d="M-31.29176,166.42316c13.06887,0 23.66326,10.38251 23.66326,23.18999c0,12.80748 -10.59441,23.18999 -23.66326,23.18999c-13.06887,0 -23.66326,-10.38251 -23.66326,-23.18999c0,-12.80748 10.59441,-23.18999 23.66326,-23.18999z" fill="url(#color-8)" fill-rule="nonzero" stroke="url(#color-9)" stroke-width="0.5"/><path d="M-46.27849,141.97111c13.06885,0 23.66326,10.38251 23.66326,23.18999c0,12.80748 -10.59441,23.18999 -23.66326,23.18999c-13.06885,0 -23.66326,-10.38251 -23.66326,-23.18999c0,-12.80748 10.59441,-23.18999 23.66326,-23.18999z" data-paper-data="{&quot;index&quot;:null}" fill="url(#color-10)" fill-rule="nonzero" stroke="url(#color-11)" stroke-width="0.5"/><text transform="translate(-1.10062,202.30882) scale(1.47856,1.47856)" font-size="40" xml:space="preserve" fill="#e1565d" fill-rule="nonzero" stroke-opacity="0" stroke="#000000" stroke-width="0" stroke-linecap="butt" stroke-linejoin="miter" stroke-miterlimit="10" stroke-dasharray="" stroke-dashoffset="0" font-family="&quot;Microsoft YaHei&quot;, &quot;微软雅黑&quot;, STXihei, &quot;华文细黑&quot;" font-weight="normal" text-anchor="start" style="mix-blend-mode: normal"><tspan x="0" dy="0">Cloud</tspan></text><text transform="translate(161.17544,201.24819) scale(1.47856,1.47856)" font-size="40" xml:space="preserve" fill="#e3b700" fill-rule="nonzero" stroke-opacity="0" stroke="#000000" stroke-width="0" stroke-linecap="butt" stroke-linejoin="miter" stroke-miterlimit="10" stroke-dasharray="" stroke-dashoffset="0" font-family="&quot;Microsoft YaHei&quot;, &quot;微软雅黑&quot;, STXihei, &quot;华文细黑&quot;" font-weight="normal" text-anchor="start" style="mix-blend-mode: normal"><tspan x="0" dy="0">Dev</tspan></text><text transform="translate(268.29885,200.18756) scale(1.47856,1.47856)" font-size="40" xml:space="preserve" fill="#005dc1" fill-rule="nonzero" stroke-opacity="0" stroke="#000000" stroke-width="0" stroke-linecap="butt" stroke-linejoin="miter" stroke-miterlimit="10" stroke-dasharray="" stroke-dashoffset="0" font-family="&quot;Microsoft YaHei&quot;, &quot;微软雅黑&quot;, STXihei, &quot;华文细黑&quot;" font-weight="normal" text-anchor="start" style="mix-blend-mode: normal"><tspan x="0" dy="0">Kit</tspan></text></g></g></svg>